<?xml version="1.0" encoding="UTF-8"?>
<svg id="Layer_2" data-name="Layer 2" xmlns="http://www.w3.org/2000/svg" viewBox="0 0 1676.46 1830">
  <g id="Illustration">
    <g id="Access_control_system" data-name="Access control system">
      <g>
        <g>
          <path d="m144.02,1168.94l24.27,6.96,13.25-24.18c5.91.61,11.79.72,17.59.34l12.38,24.6,24.5-6.11-.62-27.58c5.35-2.41,10.49-5.26,15.37-8.52l23.06,15.14,18.16-17.54-14.3-23.54c3.4-4.71,6.42-9.76,9.04-15.09l27.53,1.59,6.96-24.27-24.18-13.25c.61-5.91.72-11.79.34-17.59l24.6-12.38-6.11-24.5-27.58.62c-2.41-5.35-5.26-10.49-8.52-15.37l15.14-23.05-17.54-18.16-23.54,14.3c-4.71-3.4-9.76-6.42-15.09-9.04l1.58-27.53-24.27-6.96-13.25,24.18c-5.91-.61-11.79-.72-17.59-.34l-12.38-24.6-24.5,6.11.62,27.58c-5.35,2.41-10.49,5.26-15.37,8.52l-23.06-15.14-18.16,17.54,14.3,23.54c-3.4,4.71-6.42,9.76-9.04,15.09l-27.53-1.58-6.96,24.27,24.18,13.25c-.61,5.91-.72,11.79-.34,17.59l-24.6,12.38,6.11,24.5,27.58-.62c2.41,5.35,5.26,10.49,8.52,15.37l-15.14,23.06,17.54,18.16,23.54-14.3c4.71,3.4,9.76,6.42,15.09,9.04l-1.58,27.53Zm-14.33-139.99c9.9-34.5,45.89-54.45,80.4-44.55,34.5,9.9,54.45,45.89,44.55,80.4-9.9,34.51-45.89,54.45-80.4,44.55-34.5-9.9-54.45-45.89-44.55-80.4Z" fill="#fff"/>
          <path d="m211.5,1178.88c-.82,0-1.6-.46-1.98-1.22l-11.72-23.3c-4.93.26-9.98.16-15.02-.29l-12.55,22.91c-.5.91-1.56,1.35-2.55,1.06l-24.27-6.96c-1-.29-1.66-1.22-1.6-2.25l1.5-26.08c-4.52-2.29-8.84-4.88-12.89-7.72l-22.29,13.55c-.88.53-2.02.39-2.74-.35l-17.54-18.16c-.72-.74-.83-1.89-.26-2.75l14.34-21.84c-2.72-4.2-5.16-8.6-7.27-13.12l-26.12.58s-.03,0-.05,0c-1.01,0-1.9-.69-2.15-1.68l-6.11-24.5c-.25-1,.23-2.05,1.15-2.51l23.3-11.72c-.26-4.94-.16-9.98.29-15.03l-22.91-12.55c-.91-.5-1.35-1.56-1.06-2.55l6.96-24.27c.28-.99,1.15-1.67,2.25-1.6l26.07,1.5c2.29-4.52,4.88-8.84,7.72-12.89l-13.54-22.29c-.54-.88-.39-2.02.35-2.74l18.16-17.54c.75-.72,1.89-.82,2.75-.26l21.84,14.34c4.2-2.72,8.6-5.16,13.12-7.27l-.58-26.12c-.02-1.03.67-1.95,1.68-2.2l24.5-6.11c1.01-.25,2.05.23,2.51,1.15l11.72,23.3c4.95-.26,9.98-.16,15.02.29l12.55-22.91c.5-.91,1.56-1.35,2.55-1.06l24.27,6.96c1,.29,1.66,1.22,1.6,2.25l-1.5,26.07c4.52,2.29,8.84,4.88,12.9,7.72l22.29-13.55c.88-.53,2.02-.39,2.74.35l17.54,18.16c.72.74.83,1.89.26,2.75l-14.34,21.84c2.72,4.2,5.16,8.6,7.27,13.12l26.12-.58s.03,0,.05,0c1.01,0,1.9.69,2.15,1.68l6.11,24.5c.25,1-.23,2.05-1.15,2.51l-23.3,11.72c.26,4.95.16,9.99-.29,15.02l22.91,12.55c.91.5,1.35,1.56,1.06,2.55l-6.96,24.27c-.28.99-1.19,1.66-2.25,1.6l-26.07-1.5c-2.29,4.52-4.88,8.84-7.72,12.89l13.54,22.29c.54.88.39,2.02-.35,2.74l-18.16,17.54c-.74.72-1.89.82-2.75.26l-21.84-14.34c-4.19,2.72-8.6,5.16-13.12,7.27l.58,26.12c.02,1.03-.67,1.95-1.68,2.2l-24.5,6.11c-.18.04-.36.07-.54.07Zm-12.38-29.03c.83,0,1.6.47,1.98,1.22l11.58,23.02,21.06-5.25-.58-25.81c-.02-.89.5-1.7,1.3-2.07,5.22-2.35,10.28-5.16,15.05-8.34.74-.49,1.7-.5,2.44,0l21.58,14.17,15.62-15.08-13.38-22.03c-.46-.76-.42-1.72.1-2.44,3.3-4.58,6.28-9.55,8.84-14.77.39-.8,1.17-1.29,2.11-1.23l25.76,1.48,5.99-20.87-22.63-12.4c-.78-.43-1.23-1.28-1.14-2.17.59-5.77.71-11.56.33-17.21-.06-.89.42-1.72,1.21-2.12l23.02-11.58-5.25-21.06-25.81.58c-.9.03-1.7-.49-2.07-1.3-2.35-5.22-5.15-10.28-8.34-15.05-.49-.74-.5-1.7,0-2.44l14.17-21.57-15.08-15.62-22.03,13.38c-.76.46-1.72.42-2.44-.1-4.58-3.3-9.55-6.28-14.77-8.84-.8-.39-1.29-1.23-1.23-2.11l1.48-25.76-20.87-5.99-12.4,22.63c-.43.78-1.25,1.23-2.17,1.14-5.78-.59-11.58-.71-17.21-.33-.92.06-1.72-.42-2.12-1.21l-11.58-23.02-21.06,5.25.58,25.81c.02.89-.5,1.7-1.31,2.07-5.22,2.35-10.28,5.15-15.05,8.34-.74.49-1.7.5-2.44,0l-21.58-14.17-15.62,15.08,13.38,22.03c.46.76.42,1.72-.1,2.44-3.3,4.58-6.28,9.55-8.84,14.77-.39.8-1.2,1.29-2.11,1.23l-25.76-1.48-5.99,20.87,22.63,12.4c.78.43,1.23,1.28,1.14,2.17-.6,5.79-.71,11.58-.33,17.22.06.89-.42,1.72-1.21,2.12l-23.02,11.58,5.25,21.06,25.8-.58c.88-.03,1.7.49,2.07,1.3,2.34,5.21,5.15,10.27,8.34,15.05.49.74.5,1.7,0,2.44l-14.17,21.58,15.08,15.62,22.03-13.38c.76-.46,1.73-.42,2.44.1,4.58,3.3,9.55,6.28,14.77,8.84.8.39,1.28,1.23,1.23,2.11l-1.48,25.76,20.87,5.99,12.4-22.63c.43-.78,1.26-1.23,2.17-1.14,5.79.59,11.58.71,17.22.33.05,0,.1,0,.15,0Zm-6.86-35.73c-6.23,0-12.48-.87-18.63-2.64-35.62-10.22-56.29-47.51-46.07-83.14,4.95-17.26,16.32-31.55,32.02-40.25,15.7-8.7,33.86-10.77,51.11-5.82,35.62,10.22,56.29,47.51,46.07,83.14-4.95,17.26-16.32,31.55-32.02,40.25-10.11,5.6-21.23,8.45-32.48,8.45Zm-60.45-84.55c-9.55,33.28,9.76,68.12,43.04,77.66,16.12,4.62,33.08,2.69,47.74-5.43,14.67-8.13,25.29-21.48,29.92-37.6,9.55-33.28-9.76-68.12-43.04-77.66-16.12-4.62-33.08-2.69-47.74,5.44-14.67,8.13-25.29,21.48-29.92,37.6Z" fill="#013856"/>
        </g>
        <g>
          <path d="m141.91,1649.25l41.53,11.91,22.67-41.38c10.11,1.04,20.17,1.24,30.1.58l21.18,42.1,41.92-10.45-1.06-47.19c9.15-4.12,17.95-9,26.3-14.57l39.45,25.91,31.08-30.01-24.47-40.28c5.82-8.07,10.98-16.7,15.46-25.83l47.11,2.71,11.91-41.53-41.38-22.67c1.04-10.11,1.24-20.17.58-30.09l42.1-21.18-10.45-41.92-47.19,1.06c-4.12-9.15-8.99-17.95-14.57-26.3l25.91-39.45-30.01-31.08-40.28,24.47c-8.07-5.82-16.7-10.98-25.83-15.46l2.71-47.11-41.53-11.91-22.67,41.38c-10.11-1.04-20.17-1.24-30.1-.58l-21.18-42.1-41.92,10.45,1.06,47.19c-9.15,4.12-17.95,9-26.3,14.57l-39.45-25.91-31.08,30.01,24.47,40.28c-5.82,8.07-10.98,16.7-15.46,25.83l-47.11-2.71-11.91,41.53,41.38,22.67c-1.04,10.11-1.24,20.17-.58,30.1l-42.1,21.18,10.45,41.92,47.19-1.06c4.12,9.15,9,17.95,14.57,26.3l-25.91,39.45,30.01,31.08,40.28-24.47c8.07,5.82,16.7,10.98,25.83,15.46l-2.71,47.11Zm-24.52-239.55c16.94-59.04,78.53-93.18,137.58-76.24,59.04,16.94,93.18,78.53,76.24,137.58-16.94,59.04-78.53,93.18-137.58,76.24-59.04-16.94-93.18-78.53-76.24-137.58Z" fill="#fff"/>
          <path d="m257.4,1664.68c-.82,0-1.6-.46-1.98-1.22l-20.53-40.8c-9.03.52-18.29.34-27.53-.53l-21.97,40.1c-.5.91-1.56,1.35-2.55,1.06l-41.53-11.91c-1-.29-1.66-1.22-1.6-2.25l2.63-45.65c-8.31-4.16-16.25-8.91-23.63-14.15l-39.03,23.71c-.88.53-2.02.39-2.74-.35l-30.01-31.08c-.72-.74-.83-1.89-.26-2.75l25.11-38.23c-5.03-7.66-9.51-15.74-13.33-24.06l-45.73,1.02c-1.09.03-1.95-.67-2.2-1.68L.07,1473.99c-.25-1,.23-2.05,1.15-2.51l40.8-20.52c-.52-9.03-.34-18.28.53-27.54l-40.1-21.97c-.91-.5-1.35-1.56-1.06-2.55l11.91-41.53c.28-.99,1.14-1.67,2.25-1.6l45.65,2.63c4.16-8.31,8.91-16.24,14.14-23.63l-23.71-39.03c-.54-.88-.39-2.02.35-2.74l31.08-30.01c.74-.72,1.89-.82,2.75-.26l38.23,25.11c7.66-5.03,15.74-9.51,24.06-13.33l-1.02-45.73c-.02-1.03.67-1.95,1.68-2.2l41.92-10.45c1.01-.25,2.05.23,2.51,1.15l20.52,40.8c9.03-.52,18.28-.34,27.54.53l21.97-40.1c.5-.91,1.56-1.35,2.55-1.06l41.53,11.91c1,.29,1.66,1.22,1.6,2.25l-2.63,45.65c8.31,4.16,16.25,8.91,23.63,14.15l39.03-23.71c.88-.53,2.02-.39,2.74.35l30.01,31.08c.72.74.83,1.89.26,2.75l-25.11,38.23c5.02,7.65,9.5,15.73,13.33,24.06l45.73-1.02s.03,0,.05,0c1.01,0,1.9.69,2.15,1.68l10.45,41.92c.25,1-.23,2.05-1.15,2.51l-40.8,20.52c.52,9.03.34,18.28-.53,27.54l40.1,21.97c.91.5,1.35,1.56,1.06,2.55l-11.91,41.53c-.28.99-1.19,1.66-2.25,1.6l-45.65-2.63c-4.16,8.31-8.91,16.25-14.15,23.63l23.72,39.03c.54.88.39,2.02-.35,2.74l-31.08,30.01c-.74.72-1.89.82-2.75.26l-38.23-25.11c-7.65,5.02-15.73,9.5-24.05,13.33l1.02,45.73c.02,1.03-.67,1.95-1.68,2.2l-41.92,10.45c-.18.04-.36.07-.54.07Zm-21.18-46.53c.83,0,1.6.47,1.98,1.22l20.39,40.52,38.49-9.59-1.02-45.42c-.02-.89.5-1.7,1.3-2.07,9.02-4.06,17.76-8.9,25.97-14.4.74-.49,1.7-.5,2.44,0l37.98,24.94,28.54-27.55-23.56-38.77c-.46-.76-.42-1.72.1-2.44,5.71-7.91,10.84-16.49,15.27-25.51.39-.8,1.17-1.29,2.11-1.23l45.34,2.61,10.94-38.13-39.83-21.82c-.78-.43-1.23-1.28-1.14-2.17,1.02-10,1.22-20,.57-29.72-.06-.89.42-1.72,1.21-2.12l40.52-20.39-9.59-38.49-45.42,1.02c-.92.03-1.7-.49-2.07-1.3-4.06-9.02-8.9-17.76-14.39-25.98-.5-.74-.5-1.7-.01-2.44l24.94-37.97-27.55-28.54-38.77,23.55c-.76.46-1.72.42-2.44-.1-7.91-5.7-16.49-10.84-25.51-15.27-.8-.39-1.29-1.23-1.23-2.11l2.61-45.34-38.13-10.94-21.82,39.83c-.43.78-1.27,1.23-2.17,1.14-10-1.03-20-1.22-29.72-.57-.92.06-1.72-.42-2.12-1.21l-20.38-40.52-38.49,9.59,1.02,45.42c.02.89-.49,1.7-1.31,2.07-9.01,4.06-17.75,8.9-25.97,14.39-.74.49-1.7.5-2.44,0l-37.97-24.94-28.54,27.55,23.55,38.77c.46.76.42,1.72-.1,2.44-5.7,7.91-10.84,16.49-15.27,25.51-.39.8-1.19,1.29-2.11,1.23l-45.34-2.61-10.94,38.13,39.83,21.82c.78.43,1.23,1.28,1.14,2.17-1.03,10-1.22,20-.57,29.72.06.89-.42,1.72-1.21,2.12l-40.52,20.39,9.59,38.49,45.42-1.02c.87-.05,1.7.49,2.07,1.3,4.05,9,8.89,17.74,14.39,25.98.49.74.5,1.7.01,2.44l-24.94,37.97,27.55,28.54,38.77-23.55c.76-.46,1.72-.42,2.44.1,7.91,5.7,16.49,10.84,25.51,15.27.8.39,1.29,1.23,1.23,2.11l-2.61,45.34,38.13,10.94,21.82-39.83c.43-.78,1.25-1.23,2.17-1.14,9.99,1.03,19.99,1.22,29.72.57.05,0,.1,0,.15,0Zm-11.95-64.33c-10.33,0-20.82-1.42-31.23-4.41-29.13-8.35-53.25-27.55-67.94-54.05-14.69-26.5-18.17-57.14-9.82-86.26,8.35-29.12,27.55-53.25,54.05-67.94,26.5-14.69,57.13-18.17,86.26-9.82,29.13,8.35,53.25,27.55,67.94,54.05,14.68,26.5,18.17,57.14,9.82,86.26-14.26,49.71-59.76,82.17-109.08,82.17Zm-106.87-144.11l2.13.61c-8.03,27.99-4.68,57.43,9.44,82.9,14.11,25.47,37.3,43.91,65.29,51.94,10,2.87,20.09,4.24,30.01,4.24,47.4,0,91.12-31.19,104.83-78.96,8.03-27.99,4.68-57.43-9.44-82.9-14.11-25.47-37.3-43.91-65.29-51.94-27.99-8.03-57.43-4.68-82.89,9.44-25.47,14.11-43.91,37.3-51.94,65.29l-2.13-.61Z" fill="#013856"/>
        </g>
      </g>
      <g>
        <g>
          <g>
            <path d="m1009.89,1080c17.84-23.7-99.77-66.12-98.19-149.38,1.45-76.07,100.68-95.61,97.76-165.3-3.13-74.57-118.31-89.16-118.36-165.17-.04-58.58,68.35-67.4,73.9-130.06,6.67-75.28-90.05-85.29-121.47-184.71-29.35-92.85,38.14-137.46-11.1-210.98-6.41-9.57-46.37-66.76-103.04-67.59-92.19-1.36-211.28,146.64-193.75,274.69,14.76,107.82,115.34,120.83,121.23,235.37,4.99,97.09-65.95,113.33-42.87,188.64,27.31,89.12,135.79,96.13,158.11,196.57,11.69,52.61-14.39,67.27,7.01,104.48,45.18,78.59,211.13,99.56,230.79,73.44Z" fill="#fff"/>
            <path d="m967.63,1092.88c-4.28,0-8.8-.14-13.55-.44-53.42-3.3-144.61-28.61-176.9-84.77-11.9-20.69-9.56-34.89-6.85-51.33,2.3-14,4.92-29.87-.4-53.77-11.54-51.94-47.03-78.94-81.35-105.06-31.23-23.76-63.53-48.33-76.71-91.35-12.1-39.46.86-62.76,15.87-89.73,13.74-24.7,29.31-52.7,26.91-99.44-3.02-58.89-30.8-89.9-60.21-122.74-26.47-29.56-53.84-60.12-61.01-112.45-11-80.39,30.56-160.4,73.13-208.47,39.19-44.25,84.04-69.3,122.85-68.73,56.63.84,97.28,57.27,104.85,68.57,26.81,40.02,19.56,72.29,11.88,106.45-6.89,30.66-14.02,62.37-.51,105.1,15.02,47.53,45.16,74.37,71.74,98.06,28.64,25.52,53.37,47.55,49.83,87.51-2.83,31.96-21.41,50.1-39.39,67.64-17.75,17.33-34.52,33.7-34.5,62.22.03,37.41,28.33,59.19,58.29,82.24,28.75,22.13,58.48,45,60.07,82.84,1.49,35.58-22.24,57.85-47.36,81.42-24.43,22.92-49.68,46.61-50.39,84.01-.92,48.58,39.79,83.1,69.52,108.31,21.3,18.06,36.69,31.11,28.23,42.35-5.64,7.49-21.39,11.55-44.03,11.55ZM728.15,9.01c-36.81,0-80.91,25.05-118.28,67.25-41.92,47.34-82.86,126.03-72.06,204.94,6.98,50.99,33.89,81.04,59.92,110.1,28.63,31.96,58.23,65.02,61.33,125.46,2.47,48.01-13.44,76.59-27.46,101.82-14.51,26.09-27.05,48.62-15.5,86.29,12.77,41.65,43.07,64.71,75.16,89.12,34.96,26.6,71.1,54.1,83,107.62,5.49,24.74,2.81,41.06.44,55.45-2.68,16.25-4.79,29.08,6.32,48.41,31.42,54.65,120.87,79.32,173.33,82.56,27.55,1.7,48.15-1.88,53.78-9.35,5.95-7.9-8.84-20.44-27.55-36.32-30.41-25.78-72.04-61.09-71.08-111.77.75-39.26,26.7-63.61,51.79-87.15,24.37-22.86,47.38-44.45,45.97-78.01-1.5-35.77-29.11-57.02-58.35-79.52-29.49-22.7-59.99-46.16-60.02-85.75-.02-30.4,18.21-48.19,35.84-65.39,17.4-16.98,35.39-34.54,38.07-64.86,3.34-37.75-20.62-59.1-48.37-83.82-27.01-24.07-57.62-51.34-73.01-100.03-13.87-43.87-6.28-77.62.41-107.4,7.79-34.65,14.51-64.57-11.24-103.01-7.36-10.98-46.81-65.81-101.23-66.61-.39,0-.79,0-1.19,0Z" fill="#013856"/>
          </g>
          <path d="m972.43,1066.56c-.22,0-.44-.03-.66-.1-71.26-22.08-116.22-53.18-133.64-92.45-13.23-29.83-5.72-53.89,2.23-79.37,7.99-25.6,16.25-52.07,4.43-87.41-12.5-37.39-34.96-54.19-56.67-70.44-21.08-15.77-40.99-30.67-49.85-62.56-12.54-45.11,10.92-77.18,33.61-108.19,21.96-30.02,44.68-61.07,35.93-104.69-7.05-35.18-30.01-55.7-54.32-77.42-26.29-23.49-56.08-50.12-70.03-99.7-10.37-36.88-9.29-76.33,3.21-117.27.35-1.17,1.59-1.83,2.76-1.47,1.17.36,1.83,1.59,1.47,2.76-12.25,40.11-13.32,78.73-3.18,114.78,13.59,48.33,41.61,73.37,68.71,97.59,24.87,22.23,48.37,43.23,55.71,79.85,9.12,45.53-14.17,77.37-36.7,108.17-23.08,31.55-44.88,61.35-32.91,104.39,8.46,30.44,27.78,44.9,48.24,60.2,22.26,16.66,45.28,33.88,58.22,72.58,12.27,36.69,3.79,63.86-4.41,90.13-7.7,24.66-14.97,47.95-2.41,76.25,16.88,38.05,60.92,68.33,130.9,90.02,1.17.36,1.82,1.6,1.46,2.77-.29.95-1.17,1.56-2.11,1.56Z" fill="#013856"/>
        </g>
        <g>
          <g>
            <path d="m1052.19,1403.52c8.04-18.32-93.93-45.7-179.65-174.73-51.9-78.13-71.86-154.42-89.99-226.04-44.85-177.21-8.04-211.93-55.61-294.4-57.09-98.97-129.1-60.88-210.36-162.8-100.23-125.71-25.25-226.99-127.98-340.19-56.13-61.86-155.88-116.87-243.55-88.67-53.06,17.07-108.5,66.81-109.95,120.96-1.4,52.26,48.54,69.71,87.61,133.35,69.77,113.63-13.45,181.71,31.02,296.87,60.34,156.29,249.85,124.78,330.86,311.02,32.63,75.01,4.6,86.36,33.53,157.99,97.63,241.74,518.2,302.85,534.09,266.64Z" fill="#fff"/>
            <path d="m1011.29,1415.36c-1.28,0-2.54-.01-3.78-.03-58.79-.87-161.48-21.25-258.36-64.82-82.03-36.89-189.05-103.76-233.09-212.8-14.16-35.05-14.83-56.11-15.47-76.48-.71-22.19-1.37-43.15-18.03-81.45-41.63-95.72-111.51-133.16-179.1-169.38-62.94-33.73-122.4-65.59-151.79-141.73-20.55-53.22-14.1-96.56-7.86-138.47,7.43-49.92,14.45-97.08-22.98-158.04-15.26-24.86-32.19-42.61-47.13-58.27-23.28-24.41-41.68-43.69-40.8-76.29,1.47-55.02,57.84-105.75,111.48-123.01,87.67-28.21,188.9,26.51,245.87,89.29,52.43,57.78,58.88,111.57,65.71,168.53,6.49,54.14,13.21,110.13,62.36,171.77,39.17,49.13,75.42,65.11,110.48,80.57,36.19,15.95,70.37,31.02,100.07,82.5,25.28,43.82,26.95,73.78,29.48,119.12,2.29,41,5.14,92.02,26.36,175.84,17.31,68.41,36.94,145.95,89.69,225.36,54.13,81.49,114.09,121.79,149.91,145.87,21.67,14.57,33.6,22.59,29.92,30.98-3.91,8.91-24.71,10.95-42.93,10.95ZM194.31,111.38c-16.42,0-32.74,2.32-48.59,7.42-52.18,16.79-107,65.86-108.41,118.92-.82,30.76,17.01,49.45,39.58,73.12,15.09,15.82,32.19,33.75,47.7,59.01,38.28,62.34,31.14,110.27,23.59,161.01-6.16,41.34-12.52,84.09,7.61,136.22,28.81,74.61,87.56,106.09,149.76,139.42,68.25,36.57,138.82,74.39,181.06,171.51,17,39.08,17.71,61.45,18.4,83.08.63,19.98,1.29,40.65,15.15,74.97,75.91,187.96,359.5,272.96,487.41,274.85,28.61.42,40.72-4,42.6-8.27,2.2-5-10.61-13.61-28.34-25.53-36.09-24.26-96.51-64.87-151.13-147.09-53.17-80.04-72.89-157.97-90.29-226.72-21.32-84.24-24.18-135.49-26.48-176.68-2.5-44.71-4.15-74.25-28.9-117.16-28.97-50.22-60.97-64.33-98.02-80.66-33.89-14.94-72.31-31.88-112.16-81.86-49.93-62.62-56.72-119.25-63.29-174-6.75-56.24-13.12-109.35-64.6-166.08-45.68-50.34-120.19-95.47-192.64-95.47Z" fill="#013856"/>
          </g>
          <path d="m978.85,1394.82c-.29,0-.58-.06-.86-.17-83.72-35.12-150.69-76.58-199.05-123.24-39.16-37.79-67.15-80.04-83.17-125.6-16.77-47.67-18.66-92.8-20.5-136.43-2.75-65.32-5.34-127.02-57.3-189.42-36.6-43.96-74.9-61.36-111.94-78.19-41.27-18.75-80.24-36.46-107.01-90.14-18.62-37.34-18.96-67.33-19.34-102.06-.38-34.29-.82-73.15-17.74-130.24-16.75-56.53-43.7-110.34-80.08-159.95-.72-.99-.51-2.37.48-3.09.99-.72,2.37-.51,3.1.48,36.69,50.02,63.86,104.29,80.76,161.31,17.1,57.69,17.53,96.88,17.92,131.45.4,35.59.72,63.7,18.88,100.13,26.07,52.27,62.59,68.86,104.88,88.08,35.74,16.24,76.25,34.65,113.51,79.39,52.92,63.55,55.54,125.97,58.32,192.06,1.82,43.31,3.7,88.1,20.25,135.15,35.28,100.31,129.4,183.16,279.76,246.23,1.13.47,1.66,1.77,1.18,2.9-.35.85-1.18,1.36-2.04,1.36Z" fill="#013856"/>
        </g>
      </g>
      <g>
        <path d="m864.12,0h690.77c19.87,0,36,16.13,36,36v1348.86c0,17.04-13.83,30.87-30.87,30.87h-695.89V0h0Z" fill="#013856"/>
        <rect x="820.51" y="2.42" width="726.76" height="1414.52" rx="28.84" ry="28.84" fill="#fff"/>
        <g>
          <rect x="944.58" y="448.41" width="102.04" height="94.48" rx="9.96" ry="9.96" fill="#0288d1"/>
          <rect x="1072.98" y="448.41" width="103.12" height="94.48" rx="9.96" ry="9.96" fill="#0288d1"/>
          <rect x="1203.81" y="449.62" width="100.96" height="94.48" rx="9.96" ry="9.96" fill="#0288d1"/>
          <rect x="1331" y="449.62" width="100.96" height="94.48" rx="9.96" ry="9.96" fill="#0288d1"/>
          <rect x="944.58" y="576.81" width="102.04" height="94.48" rx="9.96" ry="9.96" fill="#0288d1"/>
          <rect x="1072.98" y="576.81" width="103.12" height="94.48" rx="9.96" ry="9.96" fill="#0288d1"/>
          <rect x="1203.81" y="578.02" width="100.96" height="94.48" rx="9.96" ry="9.96" fill="#0288d1"/>
          <rect x="1331" y="578.02" width="100.96" height="94.48" rx="9.96" ry="9.96" fill="#0288d1"/>
          <rect x="947.2" y="705.22" width="102.04" height="94.48" rx="9.96" ry="9.96" fill="#0288d1"/>
          <rect x="1073.41" y="705.22" width="103.12" height="94.48" rx="9.96" ry="9.96" fill="#0288d1"/>
          <rect x="1206.4" y="706.43" width="100.96" height="94.48" rx="9.96" ry="9.96" fill="#0288d1"/>
          <rect x="1333.59" y="706.43" width="100.96" height="94.48" rx="9.96" ry="9.96" fill="#0288d1"/>
          <rect x="947.19" y="833.62" width="102.04" height="94.48" rx="9.96" ry="9.96" fill="#0288d1"/>
          <rect x="1075.62" y="833.62" width="103.12" height="94.48" rx="9.96" ry="9.96" fill="#0288d1"/>
          <rect x="1206.39" y="834.83" width="100.96" height="94.48" rx="9.96" ry="9.96" fill="#0288d1"/>
          <rect x="1333.59" y="834.83" width="100.96" height="94.48" rx="9.96" ry="9.96" fill="#0288d1"/>
        </g>
        <g>
          <g>
            <rect x="941.99" y="452.2" width="94.48" height="94.48" rx="9.96" ry="9.96" fill="#fff"/>
            <path d="m1026.51,548.9h-74.56c-6.71,0-12.17-5.46-12.17-12.17v-74.56c0-6.71,5.46-12.17,12.17-12.17h74.56c6.71,0,12.17,5.46,12.17,12.17v74.56c0,6.71-5.46,12.17-12.17,12.17Zm-74.56-94.48c-4.27,0-7.75,3.48-7.75,7.75v74.56c0,4.27,3.48,7.75,7.75,7.75h74.56c4.27,0,7.75-3.48,7.75-7.75v-74.56c0-4.27-3.48-7.75-7.75-7.75h-74.56Z"/>
          </g>
          <g>
            <rect x="1070.39" y="452.2" width="94.48" height="94.48" rx="9.96" ry="9.96" fill="#fff"/>
            <path d="m1154.91,548.9h-74.56c-6.71,0-12.17-5.46-12.17-12.17v-74.56c0-6.71,5.46-12.17,12.17-12.17h74.56c6.71,0,12.17,5.46,12.17,12.17v74.56c0,6.71-5.46,12.17-12.17,12.17Zm-74.56-94.48c-4.27,0-7.75,3.48-7.75,7.75v74.56c0,4.27,3.48,7.75,7.75,7.75h74.56c4.27,0,7.75-3.48,7.75-7.75v-74.56c0-4.27-3.48-7.75-7.75-7.75h-74.56Z"/>
          </g>
          <g>
            <rect x="1201.22" y="453.41" width="94.48" height="94.48" rx="9.96" ry="9.96" fill="#fff"/>
            <path d="m1285.74,550.11h-74.56c-6.71,0-12.17-5.46-12.17-12.17v-74.56c0-6.71,5.46-12.17,12.17-12.17h74.56c6.71,0,12.17,5.46,12.17,12.17v74.56c0,6.71-5.46,12.17-12.17,12.17Zm-74.56-94.48c-4.27,0-7.75,3.48-7.75,7.75v74.56c0,4.27,3.48,7.75,7.75,7.75h74.56c4.27,0,7.75-3.48,7.75-7.75v-74.56c0-4.27-3.48-7.75-7.75-7.75h-74.56Z"/>
          </g>
          <g>
            <rect x="1328.41" y="453.41" width="94.48" height="94.48" rx="9.96" ry="9.96" fill="#fff"/>
            <path d="m1412.93,550.11h-74.56c-6.71,0-12.17-5.46-12.17-12.17v-74.56c0-6.71,5.46-12.17,12.17-12.17h74.56c6.71,0,12.17,5.46,12.17,12.17v74.56c0,6.71-5.46,12.17-12.17,12.17Zm-74.56-94.48c-4.27,0-7.75,3.48-7.75,7.75v74.56c0,4.27,3.48,7.75,7.75,7.75h74.56c4.27,0,7.75-3.48,7.75-7.75v-74.56c0-4.27-3.48-7.75-7.75-7.75h-74.56Z"/>
          </g>
          <g>
            <rect x="941.99" y="580.6" width="94.48" height="94.48" rx="9.96" ry="9.96" fill="#fff"/>
            <path d="m1026.51,677.3h-74.56c-6.71,0-12.17-5.46-12.17-12.17v-74.56c0-6.71,5.46-12.17,12.17-12.17h74.56c6.71,0,12.17,5.46,12.17,12.17v74.56c0,6.71-5.46,12.17-12.17,12.17Zm-74.56-94.48c-4.27,0-7.75,3.48-7.75,7.75v74.56c0,4.27,3.48,7.75,7.75,7.75h74.56c4.27,0,7.75-3.48,7.75-7.75v-74.56c0-4.27-3.48-7.75-7.75-7.75h-74.56Z"/>
          </g>
          <g>
            <rect x="1070.39" y="580.6" width="94.48" height="94.48" rx="9.96" ry="9.96" fill="#fff"/>
            <path d="m1154.91,677.3h-74.56c-6.71,0-12.17-5.46-12.17-12.17v-74.56c0-6.71,5.46-12.17,12.17-12.17h74.56c6.71,0,12.17,5.46,12.17,12.17v74.56c0,6.71-5.46,12.17-12.17,12.17Zm-74.56-94.48c-4.27,0-7.75,3.48-7.75,7.75v74.56c0,4.27,3.48,7.75,7.75,7.75h74.56c4.27,0,7.75-3.48,7.75-7.75v-74.56c0-4.27-3.48-7.75-7.75-7.75h-74.56Z"/>
          </g>
          <g>
            <rect x="1201.22" y="581.82" width="94.48" height="94.48" rx="9.96" ry="9.96" fill="#fff"/>
            <path d="m1285.74,678.51h-74.56c-6.71,0-12.17-5.46-12.17-12.17v-74.56c0-6.71,5.46-12.17,12.17-12.17h74.56c6.71,0,12.17,5.46,12.17,12.17v74.56c0,6.71-5.46,12.17-12.17,12.17Zm-74.56-94.48c-4.27,0-7.75,3.48-7.75,7.75v74.56c0,4.27,3.48,7.75,7.75,7.75h74.56c4.27,0,7.75-3.48,7.75-7.75v-74.56c0-4.27-3.48-7.75-7.75-7.75h-74.56Z"/>
          </g>
          <g>
            <rect x="1328.41" y="581.81" width="94.48" height="94.48" rx="9.96" ry="9.96" fill="#fff"/>
            <path d="m1412.93,678.51h-74.56c-6.71,0-12.17-5.46-12.17-12.17v-74.56c0-6.71,5.46-12.17,12.17-12.17h74.56c6.71,0,12.17,5.46,12.17,12.17v74.56c0,6.71-5.46,12.17-12.17,12.17Zm-74.56-94.48c-4.27,0-7.75,3.48-7.75,7.75v74.56c0,4.27,3.48,7.75,7.75,7.75h74.56c4.27,0,7.75-3.48,7.75-7.75v-74.56c0-4.27-3.48-7.75-7.75-7.75h-74.56Z"/>
          </g>
          <g>
            <rect x="944.41" y="709.02" width="94.48" height="94.48" rx="9.96" ry="9.96" fill="#fff"/>
            <path d="m1028.93,805.71h-74.56c-6.71,0-12.17-5.46-12.17-12.17v-74.56c0-6.71,5.46-12.17,12.17-12.17h74.56c6.71,0,12.17,5.46,12.17,12.17v74.56c0,6.71-5.46,12.17-12.17,12.17Zm-74.56-94.48c-4.27,0-7.75,3.48-7.75,7.75v74.56c0,4.27,3.48,7.75,7.75,7.75h74.56c4.27,0,7.75-3.48,7.75-7.75v-74.56c0-4.27-3.48-7.75-7.75-7.75h-74.56Z"/>
          </g>
          <g>
            <rect x="1072.81" y="709.02" width="94.48" height="94.48" rx="9.96" ry="9.96" fill="#fff"/>
            <path d="m1157.34,805.71h-74.56c-6.71,0-12.17-5.46-12.17-12.17v-74.56c0-6.71,5.46-12.17,12.17-12.17h74.56c6.71,0,12.17,5.46,12.17,12.17v74.56c0,6.71-5.46,12.17-12.17,12.17Zm-74.56-94.48c-4.27,0-7.75,3.48-7.75,7.75v74.56c0,4.27,3.48,7.75,7.75,7.75h74.56c4.27,0,7.75-3.48,7.75-7.75v-74.56c0-4.27-3.48-7.75-7.75-7.75h-74.56Z"/>
          </g>
          <g>
            <rect x="1203.64" y="710.23" width="94.48" height="94.48" rx="9.96" ry="9.96" fill="#fff"/>
            <path d="m1288.16,806.93h-74.56c-6.71,0-12.17-5.46-12.17-12.17v-74.56c0-6.71,5.46-12.17,12.17-12.17h74.56c6.71,0,12.17,5.46,12.17,12.17v74.56c0,6.71-5.46,12.17-12.17,12.17Zm-74.56-94.48c-4.27,0-7.75,3.48-7.75,7.75v74.56c0,4.27,3.48,7.75,7.75,7.75h74.56c4.27,0,7.75-3.48,7.75-7.75v-74.56c0-4.27-3.48-7.75-7.75-7.75h-74.56Z"/>
          </g>
          <g>
            <rect x="1330.83" y="710.23" width="94.48" height="94.48" rx="9.96" ry="9.96" fill="#fff"/>
            <path d="m1415.35,806.92h-74.56c-6.71,0-12.17-5.46-12.17-12.17v-74.56c0-6.71,5.46-12.17,12.17-12.17h74.56c6.71,0,12.17,5.46,12.17,12.17v74.56c0,6.71-5.46,12.17-12.17,12.17Zm-74.56-94.48c-4.27,0-7.75,3.48-7.75,7.75v74.56c0,4.27,3.48,7.75,7.75,7.75h74.56c4.27,0,7.75-3.48,7.75-7.75v-74.56c0-4.27-3.48-7.75-7.75-7.75h-74.56Z"/>
          </g>
          <g>
            <rect x="944.41" y="837.42" width="94.48" height="94.48" rx="9.96" ry="9.96" fill="#fff"/>
            <path d="m1028.93,934.12h-74.56c-6.71,0-12.17-5.46-12.17-12.17v-74.56c0-6.71,5.46-12.17,12.17-12.17h74.56c6.71,0,12.17,5.46,12.17,12.17v74.56c0,6.71-5.46,12.17-12.17,12.17Zm-74.56-94.48c-4.27,0-7.75,3.48-7.75,7.75v74.56c0,4.27,3.48,7.75,7.75,7.75h74.56c4.27,0,7.75-3.48,7.75-7.75v-74.56c0-4.27-3.48-7.75-7.75-7.75h-74.56Z"/>
          </g>
          <g>
            <rect x="1072.81" y="837.42" width="94.48" height="94.48" rx="9.96" ry="9.96" fill="#fff"/>
            <path d="m1157.33,934.12h-74.56c-6.71,0-12.17-5.46-12.17-12.17v-74.56c0-6.71,5.46-12.17,12.17-12.17h74.56c6.71,0,12.17,5.46,12.17,12.17v74.56c0,6.71-5.46,12.17-12.17,12.17Zm-74.56-94.48c-4.27,0-7.75,3.48-7.75,7.75v74.56c0,4.27,3.48,7.75,7.75,7.75h74.56c4.27,0,7.75-3.48,7.75-7.75v-74.56c0-4.27-3.48-7.75-7.75-7.75h-74.56Z"/>
          </g>
          <g>
            <rect x="1203.63" y="838.63" width="94.48" height="94.48" rx="9.96" ry="9.96" fill="#fff"/>
            <path d="m1288.16,935.33h-74.56c-6.71,0-12.17-5.46-12.17-12.17v-74.56c0-6.71,5.46-12.17,12.17-12.17h74.56c6.71,0,12.17,5.46,12.17,12.17v74.56c0,6.71-5.46,12.17-12.17,12.17Zm-74.56-94.48c-4.27,0-7.75,3.48-7.75,7.75v74.56c0,4.27,3.48,7.75,7.75,7.75h74.56c4.27,0,7.75-3.48,7.75-7.75v-74.56c0-4.27-3.48-7.75-7.75-7.75h-74.56Z"/>
          </g>
          <g>
            <rect x="1330.83" y="838.63" width="94.48" height="94.48" rx="9.96" ry="9.96" fill="#fff"/>
            <path d="m1415.35,935.33h-74.56c-6.71,0-12.17-5.46-12.17-12.17v-74.56c0-6.71,5.46-12.17,12.17-12.17h74.56c6.71,0,12.17,5.46,12.17,12.17v74.56c0,6.71-5.46,12.17-12.17,12.17Zm-74.56-94.48c-4.27,0-7.75,3.48-7.75,7.75v74.56c0,4.27,3.48,7.75,7.75,7.75h74.56c4.27,0,7.75-3.48,7.75-7.75v-74.56c0-4.27-3.48-7.75-7.75-7.75h-74.56Z"/>
          </g>
        </g>
        <g>
          <rect x="1125.25" y="963.63" width="135.67" height="62.79" rx="6.27" ry="6.27" fill="#fff"/>
          <path d="m1254.64,1028.63h-123.12c-4.68,0-8.49-3.81-8.49-8.49v-50.24c0-4.68,3.81-8.49,8.49-8.49h123.12c4.68,0,8.49,3.81,8.49,8.49v50.24c0,4.68-3.81,8.49-8.49,8.49Zm-123.12-62.79c-2.24,0-4.06,1.82-4.06,4.06v50.24c0,2.24,1.82,4.06,4.06,4.06h123.12c2.24,0,4.06-1.82,4.06-4.06v-50.24c0-2.24-1.82-4.06-4.06-4.06h-123.12Z"/>
        </g>
        <path d="m1518.44,1419.15h-669.09c-17.12,0-31.05-13.93-31.05-31.05V31.26c0-17.12,13.93-31.05,31.05-31.05h669.09c17.12,0,31.05,13.93,31.05,31.05v1356.84c0,17.12-13.93,31.05-31.05,31.05ZM849.35,4.64c-14.68,0-26.63,11.94-26.63,26.63v1356.84c0,14.68,11.94,26.62,26.63,26.62h669.09c14.68,0,26.62-11.94,26.62-26.62V31.26c0-14.68-11.94-26.63-26.62-26.63h-669.09Z"/>
        <g>
          <path d="m1131,1128.4h139.4c11.21,0,20.31,9.1,20.31,20.31v274.1c0,4.79-3.89,8.68-8.68,8.68h-171.51c-4.18,0-7.58-3.4-7.58-7.58v-267.45c0-15.49,12.57-28.06,28.06-28.06Z" fill="#fff"/>
          <path d="m1282.04,1433.71h-171.51c-5.4,0-9.79-4.39-9.79-9.79v-267.45c0-16.69,13.58-30.28,30.28-30.28h139.4c12.42,0,22.52,10.1,22.52,22.53v274.1c0,6.01-4.89,10.9-10.9,10.9Zm-151.03-303.09c-14.25,0-25.85,11.6-25.85,25.85v267.45c0,2.96,2.41,5.37,5.37,5.37h171.51c3.57,0,6.47-2.9,6.47-6.47v-274.1c0-9.98-8.12-18.1-18.1-18.1h-139.4Z"/>
        </g>
        <rect x="1154.88" y="1183.21" width="79.72" height="79.72" rx="12.54" ry="12.54" fill="#013856"/>
        <g>
          <rect x="925.77" y="84.8" width="520.87" height="319.79" rx="16.6" ry="16.6" fill="#fff"/>
          <path d="m1430.04,406.81h-487.67c-10.38,0-18.82-8.44-18.82-18.82V101.41c0-10.38,8.44-18.82,18.82-18.82h487.67c10.38,0,18.82,8.44,18.82,18.82v286.58c0,10.38-8.44,18.82-18.82,18.82ZM942.38,87.02c-7.93,0-14.39,6.46-14.39,14.39v286.58c0,7.93,6.45,14.39,14.39,14.39h487.67c7.93,0,14.39-6.46,14.39-14.39V101.41c0-7.93-6.46-14.39-14.39-14.39h-487.67Z"/>
        </g>
        <g>
          <circle cx="1046.36" cy="256.73" r="23.24" fill="#013856"/>
          <circle cx="1119.4" cy="255.63" r="23.24" fill="#013856"/>
          <circle cx="1193.55" cy="254.52" r="23.24" fill="#013856"/>
          <circle cx="1266.59" cy="253.42" r="23.24" fill="#013856"/>
          <circle cx="1338.52" cy="251.2" r="23.24" fill="#013856"/>
        </g>
      </g>
      <g>
        <g>
          <path d="m928.95,1720.53c-1.1,0-2.05-.82-2.19-1.94-.15-1.21.71-2.32,1.92-2.47,193.16-24.13,400.45-182.66,402.52-184.26.97-.75,2.36-.57,3.11.4.75.97.57,2.36-.4,3.1-2.08,1.61-210.34,160.86-404.68,185.14-.09.01-.19.02-.28.02Z" fill="#013856"/>
          <path d="m912.29,1755.06c-1.18,0-2.16-.93-2.21-2.11-.06-1.22.89-2.26,2.11-2.31,150.95-6.96,346.89-129.14,348.85-130.37,1.04-.65,2.4-.34,3.05.7.65,1.03.34,2.4-.7,3.05-1.97,1.24-198.9,124.03-351.01,131.05-.03,0-.07,0-.1,0Z" fill="#013856"/>
          <path d="m895.27,1742c-3.99,0-7.98-1.5-11.05-4.5h0c-6.23-6.09-6.33-16.11-.24-22.34,6.09-6.22,16.11-6.33,22.34-.24,6.23,6.09,6.33,16.11.24,22.34-3.09,3.16-7.19,4.74-11.29,4.74Zm-7.95-7.66c4.49,4.39,11.7,4.3,16.08-.18,4.38-4.48,4.31-11.69-.17-16.08-4.49-4.39-11.7-4.3-16.08.18-4.38,4.48-4.31,11.69.17,16.08Z" fill="#013856"/>
          <path d="m1372.4,1526.21s-.09,0-.13,0c-.79-.05-1.5-.52-1.85-1.23l-19.23-39.02c-.32-.65-.3-1.43.05-2.06.36-.64,1.01-1.06,1.73-1.12l47.38-4.24c.83-.08,1.66.34,2.09,1.06.44.73.42,1.64-.04,2.35l-28.15,43.26c-.41.63-1.11,1.01-1.85,1.01Zm-15.82-39.32l16.09,32.64,23.54-36.18-39.63,3.54Z" fill="#013856"/>
        </g>
        <g>
          <path d="m1637.36,404.78c-.57,0-1.13-.22-1.56-.65-.86-.86-.86-2.27,0-3.13l7.72-7.72c.86-.86,2.27-.86,3.13,0,.86.86.86,2.27,0,3.13l-7.72,7.72c-.43.43-1,.65-1.56.65Z" fill="#013856"/>
          <path d="m1666.53,375.6c-.57,0-1.13-.22-1.56-.65-.86-.86-.86-2.27,0-3.13l7.72-7.72c.86-.86,2.27-.86,3.13,0,.86.86.86,2.27,0,3.13l-7.72,7.72c-.43.43-1,.65-1.56.65Z" fill="#013856"/>
          <path d="m1674.25,404.78c-.57,0-1.13-.22-1.56-.65l-7.72-7.72c-.86-.86-.86-2.27,0-3.13s2.27-.86,3.13,0l7.72,7.72c.86.86.86,2.27,0,3.13-.43.43-1,.65-1.56.65Z" fill="#013856"/>
          <path d="m1645.08,375.6c-.57,0-1.13-.22-1.56-.65l-7.72-7.72c-.86-.86-.86-2.27,0-3.13.86-.86,2.27-.86,3.13,0l7.72,7.72c.86.86.86,2.27,0,3.13-.43.43-1,.65-1.56.65Z" fill="#013856"/>
        </g>
        <g>
          <path d="m45.52,731.01c-.31,0-.62-.06-.91-.2-1.11-.51-1.6-1.82-1.1-2.93l4.53-9.94c.51-1.11,1.82-1.6,2.93-1.1,1.11.51,1.6,1.82,1.1,2.93l-4.53,9.94c-.37.81-1.18,1.3-2.02,1.3Z" fill="#013856"/>
          <path d="m62.62,693.47c-.31,0-.62-.06-.91-.2-1.11-.51-1.6-1.82-1.1-2.93l4.53-9.94c.51-1.11,1.82-1.6,2.93-1.1,1.11.51,1.6,1.82,1.1,2.93l-4.53,9.94c-.37.81-1.18,1.3-2.02,1.3Z" fill="#013856"/>
          <path d="m80.07,718.09c-.31,0-.62-.06-.91-.2l-9.94-4.53c-1.11-.51-1.6-1.82-1.1-2.93.51-1.11,1.82-1.6,2.93-1.1l9.94,4.53c1.11.51,1.6,1.82,1.1,2.93-.37.81-1.18,1.3-2.02,1.3Z" fill="#013856"/>
          <path d="m42.53,700.99c-.31,0-.62-.06-.91-.2l-9.94-4.53c-1.11-.51-1.6-1.82-1.1-2.93.51-1.11,1.82-1.6,2.93-1.1l9.94,4.53c1.11.51,1.6,1.82,1.1,2.93-.37.81-1.18,1.3-2.02,1.3Z" fill="#013856"/>
        </g>
        <path d="m144.93,852.31c-8.78,0-15.93-7.14-15.93-15.93s7.14-15.93,15.93-15.93,15.93,7.14,15.93,15.93-7.14,15.93-15.93,15.93Zm0-27.42c-6.34,0-11.5,5.16-11.5,11.5s5.16,11.5,11.5,11.5,11.5-5.16,11.5-11.5-5.16-11.5-11.5-11.5Z" fill="#013856"/>
      </g>
      <g>
        <path d="m443.47,1356.37c-41.99,58.19-74.06,157.67-98.52,273.35-1.61,7.62-19.86,141.93-12.42,144.27,154.93,48.69,166,48.69,270.03,55.33,26.24,1.67,137.23,0,214.17-2.18,6.67-.19,12.41-4.51,12.05-11.18-9.54-175.01-26.16-386.02-26.16-386.02l-359.15-73.57Z" fill="#fff"/>
        <path d="m828.77,1818.17c-1.17,0-2.14-.91-2.21-2.09-8.99-164.84-24.44-364.09-26.02-384.3l-356.11-72.94c-37.68,52.87-70.42,144.16-97.32,271.35-2.33,11.01-18,132.66-13.38,141.95.81.53,1.2,1.55.9,2.52-.37,1.16-1.61,1.82-2.78,1.45-2.58-.81-6.47-2.03,1.28-72.5,3.75-34.03,8.76-70.17,9.64-74.33,27.23-128.74,60.5-220.99,98.89-274.18.51-.71,1.39-1.05,2.24-.87l359.15,73.57c.97.2,1.69,1.01,1.76,1.99.17,2.11,16.73,213.03,26.16,386.07.07,1.22-.87,2.26-2.09,2.33-.04,0-.08,0-.12,0Z" fill="#013856"/>
        <g>
          <g>
            <path d="m892.1,921.07s97.08,65.34,142.46,53.04c63.85-17.32,91.96-179.98,94.71-194.42,2.75-14.44,15.05-87.66,27.81-114.98,11.99-25.68,19.29-51.96,23.14-68.12,2.32-9.74,8.95-14.45,15.53-13.45,5.78.88,9.61,5.41,6.36,19.93-3.76,16.8-7.1,33.69-10.17,48.06-.97,4.52-2.81,8.8.38,5.58,7.41-7.48,19.4-15.81,31.49-19.86,5.31-1.78,47.64-47.64,58.89-42.01,10.07,5.03-47.32,67.89-45.01,75.4,5.68,18.53,2.43,43.29-6.56,65.63-15.3,38.04-39.76,33.77-43.99,51.68s-26.29,245.13-43.95,286.72c-25.39,59.82-268.88,16.16-268.88,16.16l17.8-169.37Z" fill="#fff"/>
            <path d="m1034.38,1108.11c-72.71,0-154.65-14.44-160.47-15.48-1.14-.2-1.93-1.26-1.81-2.41l17.8-169.37c.08-.77.56-1.45,1.26-1.77.7-.33,1.53-.27,2.17.17.96.65,96.75,64.64,140.64,52.74,54.52-14.78,83.03-138.35,92.76-190.78l.36-1.91c.31-1.63.74-4.01,1.28-6.98,4.17-22.98,15.26-84.03,26.7-108.52,11.59-24.82,18.9-50.51,23-67.69,2.46-10.31,9.7-16.39,18.01-15.13,3.21.49,5.64,1.92,7.23,4.25,2.57,3.75,2.88,9.76.96,18.36-2.36,10.57-4.54,21.05-6.64,31.18-1.22,5.88-2.39,11.54-3.53,16.86-.03.16-.07.32-.11.48,7.09-6.32,17.62-13.48,29.11-17.33,1.34-.55,7.28-5.99,12.51-10.79,21.28-19.53,39.58-35.34,48.07-31.1,1.17.58,1.95,1.59,2.26,2.9,1.5,6.35-8.97,20.99-26.41,44.34-8.36,11.2-19.81,26.54-19.71,29.63,5.49,17.85,3.01,42.93-6.66,66.96-9.07,22.55-21.61,30.88-30.77,36.96-6.69,4.45-11.53,7.66-13.12,14.4-1.19,5.05-4,28.46-7.54,58.09-8.92,74.47-23.84,199.11-36.52,228.99-10.8,25.45-58.42,32.96-110.84,32.96Zm-157.66-19.49c23.45,4,241.21,39.49,264.42-15.2,12.44-29.3,27.31-153.55,36.2-227.79,3.7-30.94,6.38-53.29,7.63-58.58,2-8.45,8.01-12.44,14.98-17.07,9.16-6.08,20.56-13.65,29.12-34.93,9.3-23.12,11.73-47.1,6.5-64.16-1.21-3.94,4.64-12.3,20.42-33.43,10.27-13.76,27.46-36.78,25.63-40.73-6.37-3.12-31.12,19.58-43.01,30.5-8.34,7.65-12.11,11.06-14.1,11.73-12.68,4.25-24.42,13.06-30.62,19.32-.8.81-2.47,2.5-4.3,1.46-1.86-1.06-1.33-3.07-.54-6.11.24-.91.51-1.92.73-2.95,1.13-5.31,2.31-10.96,3.53-16.83,2.1-10.15,4.28-20.65,6.65-31.25,1.62-7.23,1.52-12.24-.29-14.89-.9-1.31-2.25-2.07-4.25-2.37-5.92-.9-11.15,3.83-13.04,11.78-4.14,17.38-11.54,43.38-23.29,68.54-11.2,23.97-22.21,84.61-26.35,107.44-.54,2.99-.98,5.38-1.29,7.02l-.35,1.89c-9.88,53.26-39.01,178.81-95.95,194.25-4.1,1.11-8.6,1.62-13.38,1.62-43.94,0-112.36-42.86-127.84-52.94l-17.2,163.69Z" fill="#013856"/>
          </g>
          <path d="m483.51,832.66c117.03-52.21,343.2-41.39,501.87,128.89,18.66,20.02-35.24,171.05-83.29,160.66-42.47-9.18-77.09-19.81-80.33,4.78-4.48,33.97,25.99,306.2-18.37,382.98-79.25,137.16-315.62,116.67-437.24,49.81-32.11-17.65,1.61-66.24,25.22-224.74,17.59-118.06,27.83-215.89,6.06-178.15-10.69,18.52-122.51-92.86-110.83-126.12,25.6-72.95,70.62-141.77,196.92-198.12Z" fill="#013856"/>
          <path d="m1103.63,794.23l93.72,12.71c6.35,216.04-14.22,371.26-295.26,315.27l37.92-200.9c104.79,73.13,143.81-15.82,163.62-127.08Z" fill="#013856"/>
          <path d="m312.55,976.91c-136.61,198.56-58.08,604.58,127.08,607.61l-4.77-175.53c-15.5-19.61-23.32-213.35,5.96-274.81l-128.27-157.26Z" fill="#013856"/>
          <path d="m358.03,1555.76c-.2,0-.4-.03-.6-.08-1.18-.33-1.87-1.55-1.54-2.73,27.61-99.01,42.99-257.5,48.17-372.81.06-1.22,1.07-2.17,2.31-2.11,1.22.06,2.17,1.09,2.11,2.31-5.2,115.55-20.62,274.43-48.33,373.8-.27.98-1.16,1.62-2.13,1.62Z" fill="#fff"/>
        </g>
        <g>
          <g>
            <path d="m554.4,814.78c1.26-4.65,47.29-42.81,35.23-128.6,0,0-62.26-84.64-43.33-121.97,18.93-37.34,17.34-92.52,80.93-92.98,63.6-.45,101,28.08,115.67,65.17,14.67,37.09,18.53,74.27,19.89,95.86,1,15.98-1.14,51.71-2.32,69.19-.41,6.02-4.56,11.11-10.37,12.74l-19.22,5.39c-6.26,1.76-10.54,7.53-10.41,14.03l.72,34.35c3,83.98-24.2,72.31-44.13,76.84-50.9,11.58-129.32-5.4-122.65-30.02Z" fill="#fff"/>
            <path d="m640.12,850.78c-34.65,0-70.34-8.54-83.29-22.02-4.34-4.52-5.92-9.56-4.57-14.56.31-1.16,1.36-2.43,3.67-5.23,10.27-12.46,41.46-50.33,31.58-121.93-5.44-7.48-61.99-86.75-43.19-123.83,4.49-8.85,7.89-18.98,11.18-28.78,10.74-31.98,21.85-65.05,71.71-65.41,57.91-.39,100.85,23.85,117.74,66.57,11.03,27.89,17.77,60.36,20.04,96.53.99,15.81-1.03,50.32-2.32,69.48-.47,6.93-5.28,12.84-11.98,14.72l-19.22,5.39c-5.29,1.48-8.91,6.36-8.79,11.85l.72,34.35c2.63,73.71-18.42,75.88-37.01,77.79-3.11.32-6.06.62-8.85,1.26-11.48,2.61-24.38,3.82-37.43,3.82Zm-83.6-35.35c-.92,3.49.23,6.85,3.51,10.26,16.64,17.34,76.54,26.05,116.54,16.95,3.05-.69,6.27-1.03,9.37-1.35,17.46-1.8,35.52-3.66,33.04-73.26l-.72-34.38c-.15-7.51,4.79-14.18,12.02-16.2l19.22-5.39c4.9-1.37,8.42-5.7,8.76-10.76,1.29-19.05,3.3-53.34,2.32-68.9-2.24-35.7-8.88-67.73-19.73-95.18-16.18-40.93-57.53-64.13-113.59-63.77-46.7.33-56.82,30.48-67.54,62.39-3.34,9.95-6.8,20.23-11.43,29.37-18.11,35.71,42.52,118.83,43.14,119.66.22.3.36.64.41,1,10.39,73.89-21.87,113.05-32.47,125.91-1.26,1.53-2.57,3.11-2.83,3.64Z" fill="#013856"/>
          </g>
          <path d="m721.31,593.76c7.7-3.24,12.72-10.71,12.89-19.06.21-10-5.89-32.99,8.7-38.29,39.2-14.25,23.96-61.37.64-78.8-23.32-17.43-114.73-46.38-160.95-21.25,0,0-18.29,15.33-14.18,30.5,0,0-36.79,1.06-45.4,28.32-8.6,27.26-23.09,127.36,68.65,203.11,0,0,23.68,2.79,50.02-4.18,15.32-4.05,26.53-17.2,28.66-32.9,3.26-24.07,13.04-60.95,19.7-71.89,0,0-4.25-17.05,5.32-21.44,6.21-2.85,13.78,4.35,17.14,10.3l8.81,15.59Z" fill="#013856"/>
          <path d="m757.93,710.11c-.12,0-.24-.01-.37-.03-.34-.06-34.47-6.17-42.44-43.27-.26-1.2.5-2.37,1.7-2.63,1.19-.26,2.37.5,2.63,1.7,7.35,34.2,38.53,39.78,38.85,39.84,1.2.2,2.02,1.34,1.82,2.55-.18,1.08-1.12,1.85-2.18,1.85Z" fill="#013856"/>
          <path d="m714.77,631.62s-.03,0-.05,0c-1.17-.03-28.75-1.21-36.08-50.04-.18-1.21.65-2.34,1.86-2.52,1.22-.18,2.33.65,2.52,1.86,6.74,44.91,30.8,46.24,31.82,46.27,1.22.04,2.18,1.06,2.14,2.27-.03,1.2-1.01,2.15-2.21,2.15Z" fill="#013856"/>
        </g>
      </g>
      <path d="m1111.47,1543.57l-4.28-15.63-17.66.8c-1.64-3.44-3.53-6.7-5.68-9.75l9.35-14.99-11.51-11.39-14.9,9.54c-3.1-2.13-6.38-4-9.79-5.58l.61-17.69-15.66-4.11-8.13,15.69c-3.72-.29-7.49-.26-11.28.08l-8.31-15.62-15.62,4.28.8,17.68c-3.44,1.64-6.7,3.54-9.75,5.68l-14.98-9.36-11.39,11.52,9.53,14.91c-2.13,3.1-3.99,6.38-5.58,9.79l-17.68-.61-4.1,15.67,15.68,8.13c-.29,3.72-.26,7.49.08,11.29l-15.61,8.31,4.28,15.63,17.66-.8c1.64,3.44,3.53,6.7,5.68,9.75l-9.35,14.99,11.51,11.39,14.9-9.54c3.1,2.13,6.38,4,9.79,5.58l-.61,17.69,15.66,4.11,8.13-15.69c3.72.29,7.49.26,11.28-.08l8.31,15.62,15.62-4.28-.8-17.68c3.44-1.64,6.7-3.54,9.75-5.68l14.98,9.36,11.39-11.52-9.53-14.91c2.13-3.1,3.99-6.38,5.58-9.79l17.68.61,4.1-15.67-15.68-8.13c.29-3.72.26-7.49-.08-11.29l15.61-8.31Zm-71.91,54.55c-22.2,6.08-45.13-7-51.2-29.21-6.08-22.22,6.99-45.16,29.19-51.24,22.2-6.08,45.13,7,51.2,29.21,6.08,22.22-6.99,45.16-29.19,51.24Z" fill="#013856"/>
      <g>
        <circle cx="351.62" cy="324.82" r="147.31" fill="#013856"/>
        <g>
          <g>
            <path d="m385.75,304.06l-.74-46.73c-.34-15.1-12.31-27.46-27.4-28.15-16.63-.76-30.43,12.83-30.04,29.48l.33,14.5c.12,5.06-4.06,9.16-9.12,8.96-4.65-.19-8.34-3.98-8.41-8.63l-.2-13.77c-.62-26.73,20.78-48.68,48.37-47.56v.02c22.79.93,43.65,20.98,44.22,45.4l.59,47.19-17.6-.72Z" fill="#fff"/>
            <path d="m403.35,306.99s-.06,0-.09,0l-17.6-.72c-1.17-.05-2.1-1-2.12-2.18l-.74-46.73c-.32-13.92-11.42-25.34-25.29-25.98-7.4-.34-14.38,2.34-19.7,7.53-5.27,5.15-8.2,12.33-8.03,19.68l.33,14.5c.07,3.02-1.13,5.97-3.28,8.08-2.16,2.12-5.15,3.26-8.14,3.14-5.82-.24-10.45-4.98-10.53-10.81l-.2-13.77c-.32-13.74,4.82-26.55,14.48-36.05,9.59-9.43,22.45-14.31,36.19-13.75.11,0,.22.02.33.04,24.4,1.18,45.44,22.88,46.01,47.55l.59,47.22c0,.61-.24,1.19-.67,1.61-.42.4-.97.63-1.54.63Zm-15.42-5.06l13.18.54-.56-44.86c-.52-22.51-19.8-42.31-42.1-43.22-.11,0-.21-.02-.31-.04-12.41-.43-23.96,4.01-32.59,12.5-8.78,8.63-13.45,20.28-13.16,32.81l.2,13.79c.05,3.48,2.81,6.31,6.29,6.45,1.84.08,3.55-.59,4.85-1.87,1.3-1.28,2-2.99,1.96-4.82l-.33-14.5c-.2-8.58,3.21-16.94,9.36-22.95,6.2-6.06,14.34-9.18,23-8.79,16.18.74,29.14,14.06,29.51,30.31l.71,44.65Z" fill="#013856"/>
          </g>
          <path d="m366.22,432.54l-19.71.78c-27.3-.68-51.42-33.3-48.84-71.65l4.14-61.34,116.02-.93c10.3-.04,18.92,9.14,18.21,19.41l-3.58,51.8c-2.35,34.85-31.31,61.92-66.24,61.92Z" fill="#fff"/>
          <g>
            <path d="m347.21,431.58c-38.43,0-68.84-32.53-66.24-70.87l4.02-59.46h122.66c5.64,0,10.11,4.78,9.73,10.4l-3.92,58.01c-2.36,34.85-31.31,61.92-66.24,61.92Z" fill="#fff"/>
            <path d="m347.21,433.8c-19.21,0-37.01-7.73-50.12-21.76-13.11-14.03-19.62-32.31-18.33-51.48l4.02-59.46c.08-1.16,1.04-2.06,2.21-2.06h122.66c3.3,0,6.49,1.38,8.74,3.79,2.25,2.41,3.42,5.68,3.2,8.97l-3.92,58.01c-2.43,35.88-32.49,63.98-68.45,63.98Zm-60.16-130.33l-3.88,57.4c-1.21,17.93,4.88,35.03,17.15,48.16,12.27,13.13,28.92,20.35,46.89,20.35,33.64,0,61.77-26.29,64.04-59.85l3.92-58.01c.14-2.1-.57-4.11-2.01-5.65-1.44-1.54-3.4-2.39-5.51-2.39h-120.6Z" fill="#013856"/>
          </g>
          <g>
            <path d="m345.69,393.97c-3.13,0-5.61-2.64-5.41-5.77l2.95-46.23c.18-2.86,2.55-5.08,5.41-5.08,3.13,0,5.61,2.64,5.41,5.77l-2.95,46.23c-.18,2.86-2.55,5.08-5.41,5.08Z" fill="#013856"/>
            <circle cx="347.59" cy="346.18" r="19.97" fill="#013856"/>
          </g>
        </g>
      </g>
    </g>
  </g>
</svg>