<svg version="1.1" xmlns="http://www.w3.org/2000/svg" width="512" height="512">
<path d="M0 0 C1.33636774 -0.0041787 2.67273192 -0.00965916 4.00908959 -0.01631981 C7.66170006 -0.03072298 11.31408391 -0.02654588 14.96670651 -0.019153 C18.91364718 -0.01441084 22.86053956 -0.02694044 26.8074646 -0.03717041 C34.5323126 -0.05434344 42.2570792 -0.05520151 49.98194133 -0.04995751 C56.26262874 -0.04591167 62.54329215 -0.04736427 68.82397842 -0.05270576 C70.16621094 -0.0538284 70.16621094 -0.0538284 71.53555927 -0.05497371 C73.35355043 -0.05650523 75.17154158 -0.05804358 76.98953272 -0.05958868 C94.02835471 -0.07330839 111.06713075 -0.06787982 128.10595168 -0.05640347 C143.68232276 -0.04647232 159.25857503 -0.05941064 174.83492778 -0.08333766 C190.84190384 -0.10774026 206.84882459 -0.11733363 222.85581887 -0.11068493 C231.83725256 -0.1071952 240.8185949 -0.10940846 249.8000145 -0.12693596 C257.44591347 -0.14167248 265.09165678 -0.14227449 272.73755275 -0.12486505 C276.63568846 -0.11636445 280.53354625 -0.11418223 284.43166733 -0.1295166 C288.0058488 -0.14340216 291.57951526 -0.13855168 295.15366723 -0.11927737 C297.04692348 -0.11376413 298.94020621 -0.12775667 300.83341205 -0.14263147 C313.309831 -0.03568802 323.66164371 3.87908323 332.85159302 12.38768005 C340.6108066 20.50947371 344.78834595 29.84255296 344.85256958 41.03636169 C344.85753448 41.69536972 344.86249939 42.35437775 344.86761475 43.03335571 C344.88217461 45.20485998 344.88902593 47.37629133 344.89456177 49.5478363 C344.90031575 51.05950929 344.90607346 52.57118226 344.91183472 54.08285522 C344.92232531 57.24769937 344.92818151 60.41251824 344.93167114 63.57737732 C344.93716961 67.63514338 344.9612342 71.69257621 344.9896431 75.75023746 C345.00824694 78.87031034 345.01347373 81.99030229 345.01500702 85.11042595 C345.01803626 86.60677868 345.02607394 88.10312989 345.0391922 89.59942818 C345.05621576 91.68934396 345.05438282 93.77843629 345.04788208 95.86839294 C345.05152771 97.05767899 345.05517334 98.24696503 345.05892944 99.47229004 C344.69143677 102.38768005 344.69143677 102.38768005 343.59779358 104.27384949 C340.6788271 105.97931935 338.19357282 105.74609848 334.83328247 105.72825623 C333.79387009 105.72891335 333.79387009 105.72891335 332.73345947 105.72958374 C330.44442509 105.7274947 328.15612435 105.70415932 325.86721802 105.6806488 C324.27967224 105.67505323 322.69212129 105.67078295 321.10456848 105.66778564 C316.92708014 105.65633373 312.74990494 105.62686378 308.57254028 105.59367371 C304.30948116 105.56298017 300.04637142 105.54928185 295.78323364 105.53416443 C287.41915768 105.50199422 279.05533618 105.45079392 270.69143677 105.38768005 C270.4866065 110.06693934 270.37648315 114.73599255 270.34963989 119.41966248 C270.32771929 121.00777782 270.2810001 122.59576791 270.20803833 124.18235779 C269.57555042 133.10600959 269.57555042 133.10600959 273.03656006 140.95603943 C276.3610178 143.7162209 280.03921502 145.6036651 283.9216156 147.45417786 C288.69146064 149.97005963 292.66861392 153.8470675 296.69143677 157.38768005 C297.60602661 158.1765863 297.60602661 158.1765863 298.53909302 158.98143005 C318.67763587 177.64409861 329.64850336 206.11571308 330.97659302 233.12205505 C331.83025294 262.85381078 321.77574351 291.18138469 301.36331177 312.98924255 C294.99274721 319.62020339 288.54071445 325.52601671 280.69143677 330.38768005 C279.92573364 330.89041443 279.16003052 331.3931488 278.37112427 331.91111755 C273.01222406 335.38768005 273.01222406 335.38768005 270.69143677 335.38768005 C270.69512394 335.98052701 270.69881111 336.57337397 270.70261002 337.18418598 C270.79118279 351.65021611 270.85725377 366.11622192 270.89868546 380.58246326 C270.91925725 387.57842599 270.94727384 394.57420704 270.99319458 401.5700531 C271.03752121 408.326298 271.06060066 415.08235436 271.07094574 421.83873558 C271.07831454 424.41142935 271.09270393 426.98411326 271.11435699 429.55672646 C271.14355646 433.17092992 271.14738571 436.78436322 271.14553833 440.39866638 C271.15991943 441.45315475 271.17430054 442.50764313 271.18911743 443.59408569 C271.12327368 455.56353853 266.81037839 465.77874506 258.69143677 474.5478363 C251.18667326 481.71756573 241.98382424 486.50136242 231.49625778 486.52190113 C230.43920851 486.52635897 229.38215925 486.53081682 228.29307818 486.53540975 C226.55265368 486.5351332 226.55265368 486.5351332 224.77706909 486.53485107 C223.54354053 486.53852776 222.31001196 486.54220445 221.03910375 486.54599255 C217.61293912 486.55511313 214.18682237 486.55972775 210.76065016 486.56238186 C207.06575751 486.56628817 203.37087869 486.57586659 199.67599487 486.58459473 C190.74906898 486.60435465 181.82214196 486.61442683 172.89519966 486.62332252 C168.68733705 486.62770804 164.47947569 486.63307434 160.27161407 486.63831139 C146.27503597 486.65532667 132.27845865 486.669818 118.2818718 486.67706013 C114.64983876 486.67896992 111.01780572 486.68089026 107.38577271 486.68284607 C106.48308479 486.68332981 105.58039687 486.68381355 104.65035477 486.68431195 C90.04702898 486.69260153 75.44378539 486.71791894 60.84049544 486.75042675 C45.83372523 486.78355902 30.82699668 486.80151463 15.82018971 486.80470437 C7.40021371 486.80686426 -1.01964258 486.81553577 -9.43958282 486.84116554 C-16.6151652 486.86295735 -23.7905988 486.87088171 -30.96621051 486.86119876 C-34.62191785 486.85667783 -38.27731881 486.85840973 -41.9329834 486.87796021 C-76.07606493 487.05049374 -76.07606493 487.05049374 -91.62106323 478.63768005 C-92.6051416 478.12443176 -92.6051416 478.12443176 -93.60910034 477.60081482 C-113.16503166 467.13287898 -126.89236973 450.74386428 -133.56246948 429.5400238 C-136.12332899 420.70947378 -137.63094482 411.57287111 -136.30856323 402.38768005 C-135.29615784 400.72073364 -135.29615784 400.72073364 -133.30856323 399.38768005 C-130.48868131 399.10709343 -127.89231887 399.00878194 -125.07345581 399.04710388 C-124.23421066 399.0466658 -123.39496552 399.04622772 -122.5302887 399.04577637 C-119.75432122 399.04786759 -116.97895655 399.07121419 -114.20309448 399.0947113 C-112.27924428 399.10030608 -110.35538981 399.10457673 -108.43153381 399.10757446 C-103.36631483 399.11903258 -98.30135365 399.14850813 -93.23623657 399.1816864 C-88.06832364 399.21236642 -82.90036909 399.22607538 -77.73239136 399.24119568 C-67.59100201 399.27337686 -57.44980405 399.32458493 -47.30856323 399.38768005 C-47.30856323 394.43768005 -47.30856323 389.48768005 -47.30856323 384.38768005 C-49.21750366 384.39767281 -49.21750366 384.39767281 -51.16500854 384.40786743 C-63.17086401 384.46873908 -75.17668807 384.51368186 -87.18266296 384.54311657 C-93.35474083 384.55875806 -99.5266939 384.57996894 -105.69869995 384.61399841 C-111.65741194 384.64664549 -117.61600404 384.66454448 -123.57479858 384.67231178 C-125.84573249 384.67784565 -128.11665999 384.68865193 -130.38754272 384.70487022 C-133.57359895 384.72671518 -136.75916266 384.72964397 -139.94528198 384.72825623 C-141.34682777 384.74443497 -141.34682777 384.74443497 -142.77668762 384.76094055 C-149.86776598 384.72762045 -155.58796312 383.74553349 -161.12106323 378.95018005 C-165.37245948 373.96997302 -167.42895069 370.87861696 -167.44557762 364.19949818 C-167.45065216 363.11860599 -167.45572671 362.03771381 -167.46095502 360.92406732 C-167.46145278 359.73206883 -167.46195054 358.54007034 -167.46246338 357.31195068 C-167.46684563 356.0491307 -167.47122789 354.78631072 -167.47574294 353.48522347 C-167.48771183 349.97295945 -167.49335761 346.46070917 -167.49792409 342.94842875 C-167.50387896 339.16300786 -167.51548907 335.37760341 -167.5262146 331.5921936 C-167.55074087 322.44687434 -167.56536589 313.30154963 -167.57827467 304.15620759 C-167.58198637 301.57345253 -167.58595962 298.99069801 -167.59002733 296.40794349 C-167.61526314 280.37158127 -167.63731764 264.33521821 -167.64975548 248.29884052 C-167.6526852 244.5840689 -167.65564686 240.86929731 -167.65866089 237.15452576 C-167.65940694 236.23123017 -167.66015299 235.30793457 -167.66092165 234.35666033 C-167.67357623 219.39865522 -167.70680058 204.44076896 -167.74846272 189.48281942 C-167.79087971 174.12807651 -167.81445022 158.77339445 -167.81967604 143.41859311 C-167.82309038 134.79650121 -167.83484822 126.17459505 -167.86777878 117.55256081 C-167.89577721 110.20982108 -167.90677957 102.86730517 -167.89558332 95.5245162 C-167.89039611 91.77860748 -167.89328674 88.03316746 -167.91804886 84.28732681 C-167.9446853 80.22400177 -167.93248335 76.16170853 -167.91656494 72.09832764 C-167.93044703 70.91748276 -167.94432912 69.73663787 -167.95863187 68.52000982 C-167.89100156 61.5219672 -166.94529515 56.76922251 -162.30856323 51.38768005 C-158.1532501 47.53641422 -154.5360878 45.13358639 -148.80337524 45.14717102 C-147.90597626 45.14442169 -147.00857727 45.14167236 -146.08398438 45.13883972 C-145.10718719 45.14603027 -144.13039001 45.15322083 -143.12399292 45.16062927 C-142.08953033 45.16033722 -141.05506775 45.16004517 -139.98925781 45.15974426 C-136.569566 45.16113774 -133.15009199 45.17670002 -129.73043823 45.19236755 C-127.35961018 45.19609761 -124.98878058 45.19894462 -122.61795044 45.20094299 C-116.37736761 45.20857998 -110.13687784 45.22822913 -103.89633179 45.25035095 C-97.52854674 45.27080791 -91.16074666 45.2799444 -84.79293823 45.2900238 C-72.29810567 45.31147487 -59.80334219 45.3456117 -47.30856323 45.38768005 C-47.31413742 44.76989685 -47.31971161 44.15211365 -47.32545471 43.51560974 C-47.33195793 42.29986267 -47.33195793 42.29986267 -47.33859253 41.05955505 C-47.34416672 40.25614685 -47.34974091 39.45273865 -47.35548401 38.62498474 C-47.15344885 28.99142277 -41.5023912 19.08940506 -35.16403198 12.08299255 C-24.62186365 2.4507798 -13.87640711 -0.06797176 0 0 Z M-28.90621948 25.11424255 C-32.98254157 31.72265328 -34.39957985 37.68970956 -34.30856323 45.38768005 C-33.01088013 45.39132568 -31.71319702 45.39497131 -30.37619019 45.39872742 C-18.13469961 45.43570095 -5.89346004 45.49349984 6.34783936 45.57158279 C12.64093047 45.61105776 18.93388165 45.64324638 25.2270813 45.65867615 C31.3026756 45.67384224 37.37788519 45.70828791 43.45330811 45.75598907 C45.76884615 45.77080318 48.08443913 45.77872108 50.40002441 45.7795639 C53.64861866 45.78193511 56.89615106 45.80902901 60.14456177 45.84178162 C61.57415977 45.83423607 61.57415977 45.83423607 63.03263855 45.82653809 C69.8486197 45.93255397 75.55816838 47.29432591 80.53128052 52.2040863 C81.07462036 53.06840271 81.07462036 53.06840271 81.62893677 53.95018005 C82.00921021 54.52896912 82.38948364 55.10775818 82.78128052 55.7040863 C84.59547699 59.05996046 84.81911844 61.82341084 84.82845116 65.56024456 C84.8335257 66.63765335 84.83860024 67.71506214 84.84382856 68.82511967 C84.84432632 70.01322722 84.84482407 71.20133476 84.84533691 72.42544556 C84.85191029 74.3135502 84.85191029 74.3135502 84.85861647 76.23979837 C84.87058522 79.74066081 84.87623111 83.24150947 84.88079762 86.74238837 C84.88675255 90.51553923 84.89836265 94.28867361 84.90908813 98.06181335 C84.93361428 107.17746974 84.94823941 116.29313159 84.9611482 125.40881082 C84.96485992 127.98319684 84.96883317 130.55758231 84.97290087 133.13196778 C84.99813669 149.11642912 85.02019115 165.1008913 85.03262901 181.08536816 C85.03555874 184.78810822 85.0385204 188.49084826 85.04153442 192.19358826 C85.04228047 193.11389323 85.04302653 194.03419821 85.04379518 194.98239122 C85.05644972 209.89189756 85.08967402 224.80128468 85.13133626 239.71073528 C85.1737535 255.01575765 85.19732378 270.32071896 85.20254958 285.62579995 C85.20596389 294.21994644 85.21772139 302.81390658 85.25065231 311.40799522 C85.2786511 318.72694657 85.28965295 326.04567337 85.27845685 333.36467411 C85.27326973 337.09843182 85.27615968 340.8317193 85.30092239 344.56540871 C85.32755977 348.61559761 85.31535659 352.6647514 85.29943848 356.71499634 C85.31332056 357.89195027 85.32720265 359.0689042 85.34150541 360.28152341 C85.27358221 367.28749211 84.29890697 371.98559201 79.69143677 377.38768005 C73.47092844 383.44868816 66.79046987 383.68763373 58.5552063 383.70652771 C57.54971237 383.71657333 56.54421844 383.72661896 55.508255 383.73696899 C52.19692537 383.76776905 48.88567649 383.78482749 45.57424927 383.80174255 C43.27353217 383.82045673 40.97282193 383.84003033 38.67211914 383.86042786 C32.62564125 383.91172851 26.57914111 383.95136544 20.53256226 383.98857117 C14.35890204 384.02862366 8.1853342 384.07971036 2.01174927 384.12986755 C-10.09495665 384.22660244 -22.20171475 384.31101515 -34.30856323 384.38768005 C-34.30856323 389.33768005 -34.30856323 394.28768005 -34.30856323 399.38768005 C-33.13535585 399.3909902 -31.96214848 399.39430035 -30.75338936 399.3977108 C-2.92659777 399.47666633 24.9001463 399.56586248 52.72686373 399.66773167 C56.1491365 399.68025108 59.57140958 399.69268377 62.99368286 399.70506287 C63.67501841 399.70752886 64.35635396 399.70999485 65.05833603 399.71253558 C76.10179868 399.75229876 87.1452716 399.78503031 98.1887642 399.81517987 C109.51379008 399.84625393 120.83876705 399.88499495 132.163746 399.93047011 C138.52759748 399.95577919 144.89141779 399.97754733 151.25530624 399.99102402 C157.23882332 400.00380449 163.22223374 400.02581507 169.20569229 400.05506325 C171.4075938 400.06417056 173.6095125 400.06983654 175.81143188 400.07189369 C178.80613271 400.07519406 181.80052703 400.09061054 184.79516602 400.10920715 C186.11713181 400.10630505 186.11713181 400.10630505 187.46580398 400.10334432 C193.46319435 400.15943763 193.46319435 400.15943763 195.69143677 402.38768005 C195.94972229 404.23130798 195.94972229 404.23130798 195.962677 406.49510193 C195.97795692 407.76782959 195.97795692 407.76782959 195.99354553 409.06626892 C195.99568558 409.98702209 195.99782562 410.90777527 196.00003052 411.85643005 C196.0252158 413.80955771 196.05061341 415.76268264 196.07620239 417.71580505 C196.10480308 420.79196803 196.12881624 423.86808286 196.1477356 426.94432068 C196.16958098 429.915293 196.2090615 432.88566844 196.25003052 435.85643005 C196.25020424 437.21326904 196.25020424 437.21326904 196.25038147 438.59751892 C196.40124811 448.47942609 198.64471088 457.19134767 205.66799927 464.4228363 C213.82993539 472.15003012 220.04063382 474.01954427 231.28909302 473.73143005 C239.83055221 472.86845829 245.8483831 468.46922571 251.69143677 462.38768005 C257.35337855 455.08675512 257.98282779 448.62760639 257.91848755 439.70066833 C257.91892563 438.10464531 257.91892563 438.10464531 257.91937256 436.47637939 C257.91798263 432.97016662 257.90243703 429.46416807 257.88674927 425.95799255 C257.88301795 423.52276221 257.88017154 421.08753036 257.87817383 418.65229797 C257.87054677 412.25063412 257.85090613 405.84906139 257.82876587 399.44743347 C257.80828753 392.9119032 257.79916785 386.37635818 257.78909302 379.84080505 C257.76765947 367.02305791 257.73392043 354.20537383 257.69143677 341.38768005 C255.97247192 341.80340271 255.97247192 341.80340271 254.21878052 342.2275238 C252.68887236 342.59357545 251.1589222 342.95945153 249.62893677 343.32518005 C248.8767688 343.5075824 248.12460083 343.68998474 247.34963989 343.87791443 C219.6944737 350.46247781 189.33569824 346.57582274 164.81643677 332.01268005 C139.60834276 316.42064662 121.32458844 292.94635436 114.43362427 263.91893005 C114.18870239 262.75361755 113.94378052 261.58830505 113.69143677 260.38768005 C113.35499146 258.8253363 113.35499146 258.8253363 113.01174927 257.23143005 C107.6646715 228.22536434 114.91448355 199.79797288 130.44143677 175.20018005 C147.67151698 150.44663402 173.20535103 135.02815856 202.72610474 129.71482849 C207.04745364 128.99549836 211.31498535 128.54594795 215.69143677 128.38768005 C216.53190552 128.34771912 217.37237427 128.30775818 218.23831177 128.2665863 C229.76611459 127.97668594 241.25326485 129.71387216 252.33596802 132.80174255 C254.77210756 133.50837978 254.77210756 133.50837978 257.69143677 133.38768005 C257.70356705 131.71756866 257.70356705 131.71756866 257.71594238 130.01371765 C257.79369145 119.4805978 257.88150147 108.94760256 257.97896385 98.41464615 C258.02874276 93.00057244 258.07507336 87.58651652 258.11331177 82.17234802 C258.15039838 76.93972506 258.1968194 71.70725797 258.24950027 66.47476959 C258.26792078 64.48629767 258.2830734 62.49779249 258.29478073 60.50926971 C258.45937479 33.49993107 258.45937479 33.49993107 264.19143677 22.82518005 C264.79987427 21.66889099 265.40831177 20.51260193 266.03518677 19.3212738 C267.69143677 16.38768005 267.69143677 16.38768005 269.69143677 13.38768005 C234.09801351 13.250241 198.50463691 13.14456841 162.91100277 13.08128808 C158.70548945 13.07378415 154.49997665 13.06601819 150.29446411 13.05809021 C149.45724909 13.05651635 148.62003406 13.05494248 147.75744888 13.05332093 C134.21486806 13.02723813 120.67244061 12.97994459 107.12995067 12.92476328 C93.22622972 12.86858405 79.3225889 12.83531257 65.41875911 12.82314909 C56.84452221 12.81493081 48.27071887 12.78900799 39.69661549 12.74018125 C33.81094319 12.70837879 27.92549387 12.69889896 22.03974196 12.70667179 C18.6474941 12.71050176 15.25660876 12.70146342 11.86439323 12.6724472 C8.17644547 12.6424549 4.49033063 12.64982216 0.80233765 12.66615295 C-0.25606473 12.64867591 -1.3144671 12.63119886 -2.40494227 12.6131922 C-12.78476085 12.73685533 -22.4024638 16.81360572 -28.90621948 25.11424255 Z M-154.30856323 62.38768005 C-154.90311851 64.86877296 -154.90311851 64.86877296 -154.8119278 67.61637878 C-154.82235878 68.68082844 -154.83278977 69.74527809 -154.84353685 70.8419838 C-154.83461397 72.01045223 -154.82569108 73.17892067 -154.8164978 74.38279724 C-154.82273777 75.62479259 -154.82897773 76.86678795 -154.83540678 78.14641953 C-154.84862013 81.59604511 -154.84383974 85.04480206 -154.83146191 88.49437523 C-154.82242688 92.21360163 -154.83637341 95.93275107 -154.84738159 99.65196228 C-154.86518804 106.93869234 -154.86131743 114.22525779 -154.84973103 121.51199436 C-154.84070531 127.43293168 -154.83946896 133.3538228 -154.84382629 139.27476501 C-154.84443923 140.11677798 -154.84505216 140.95879095 -154.84568366 141.82631946 C-154.84696254 143.53673841 -154.84825939 145.24715735 -154.84957403 146.95757627 C-154.86098605 163.00424639 -154.84785639 179.05082516 -154.82637256 195.0974803 C-154.80850101 208.87264472 -154.81160494 222.64767432 -154.83004761 236.4228363 C-154.85144336 252.41124314 -154.85988736 268.39956989 -154.84759855 284.38798904 C-154.84632433 286.09219105 -154.84506685 287.79639306 -154.84382629 289.50059509 C-154.84320919 290.33914181 -154.84259209 291.17768854 -154.84195629 292.04164577 C-154.83849949 297.95693681 -154.84433881 303.87217714 -154.85374451 309.78746033 C-154.8649515 316.99415295 -154.86195196 324.20067126 -154.84062153 331.40734386 C-154.83009344 335.08584884 -154.82601885 338.76406296 -154.83921814 342.44256592 C-154.85329586 346.42606349 -154.83651138 350.40908255 -154.8164978 354.39256287 C-154.82542069 355.5610313 -154.83434358 356.72949974 -154.84353685 357.93337631 C-154.83310586 358.99782597 -154.82267488 360.06227562 -154.8119278 361.15898132 C-154.81127839 362.07877399 -154.81062898 362.99856667 -154.80995989 363.94623184 C-154.15278926 367.14618949 -152.7875478 368.33241013 -150.30856323 370.38768005 C-147.06312382 372.01039976 -143.49865736 371.52806213 -139.93273926 371.52139282 C-139.05588891 371.52365838 -138.17903857 371.52592394 -137.275617 371.52825814 C-134.3199518 371.53461833 -131.36433221 371.53376749 -128.40866089 371.53294373 C-126.29665568 371.53593397 -124.18465103 371.53933618 -122.07264709 371.54312134 C-116.32267741 371.55197947 -110.5727226 371.55430022 -104.82274675 371.55493712 C-100.02882363 371.5558848 -95.234904 371.55956147 -90.44098222 371.56310922 C-79.13381994 371.57126074 -67.82666562 371.57369283 -56.51950073 371.57298279 C-44.84180989 371.57238186 -33.16416523 371.58293501 -21.48648608 371.59872645 C-11.4728758 371.61178685 -1.45928064 371.61716731 8.5543381 371.61652738 C14.54041644 371.61627194 20.52645377 371.61914825 26.51252365 371.62970543 C32.14146913 371.63936115 37.7703342 371.63948299 43.39928246 371.6321888 C45.46812876 371.63113979 47.53698 371.63352447 49.60581779 371.63954926 C52.42452269 371.64722761 55.24294698 371.64265201 58.06164551 371.63491821 C59.29695293 371.64263356 59.29695293 371.64263356 60.55721605 371.65050477 C65.95901966 371.66962506 65.95901966 371.66962506 70.69143677 369.38768005 C72.88758915 366.09345148 72.94335911 365.12476027 72.95149899 361.30043983 C72.95856458 360.24208132 72.96563017 359.18372281 72.97290987 358.09329283 C72.97049478 356.92648462 72.9680797 355.75967641 72.96559143 354.55751038 C72.97082811 353.32115857 72.97606479 352.08480675 72.98146015 350.81098974 C72.99389666 347.37267877 72.9973029 343.93457202 72.99686325 340.49625254 C72.99850887 336.79063444 73.01157055 333.08505381 73.02305603 329.37945557 C73.04592421 321.27418465 73.05382846 313.16893988 73.05888247 305.06364107 C73.06213712 300.00462102 73.06865816 294.9456086 73.07588387 289.88659286 C73.09545149 275.88488573 73.11185497 261.88318569 73.1147604 247.881464 C73.11494797 246.98514097 73.11513554 246.08881793 73.11532879 245.16533359 C73.11569505 243.34820167 73.11605875 241.53106975 73.1164199 239.71393783 C73.11660272 238.811888 73.11678553 237.90983817 73.11697388 236.98045349 C73.11715443 236.07730527 73.11733498 235.17415705 73.117521 234.24364071 C73.12106395 219.60369411 73.14809317 204.96389449 73.18547177 190.32399888 C73.22352384 175.300357 73.24291764 160.2767881 73.24321991 145.25309694 C73.24380515 136.81499089 73.25234001 128.37706018 73.28121758 119.93899918 C73.30569 112.75499668 73.31304248 105.57123348 73.29797005 98.38720061 C73.29078421 94.72065274 73.29172957 91.05457781 73.31438065 87.3880825 C73.33868624 83.41578231 73.3243817 79.44416232 73.3061676 75.47181702 C73.32596755 73.72829687 73.32596755 73.72829687 73.3461675 71.94955409 C73.29619912 67.19963997 73.23388329 64.26640688 70.70617104 60.17168331 C66.62059077 57.75399477 63.51197753 57.6929575 58.84095764 57.75949097 C57.94929337 57.75239658 57.05762909 57.74530219 56.13894469 57.73799282 C53.15071405 57.72038867 50.16377992 57.73853002 47.17556763 57.75657654 C45.03355822 57.75143869 42.89155303 57.74415844 40.7495575 57.7348938 C34.93142996 57.71635573 29.11375979 57.7293334 23.2956512 57.7489841 C17.21163685 57.76534976 11.12765195 57.7565607 5.04362488 57.75146484 C-5.17288535 57.74694191 -15.3892126 57.76282708 -25.60568237 57.79075623 C-37.42495994 57.82281745 -49.24390762 57.82278964 -61.06320864 57.80554146 C-72.42487106 57.78969048 -83.78641228 57.7964002 -95.14806938 57.81347847 C-99.98733169 57.8203592 -104.82649715 57.81930604 -109.66575813 57.81193352 C-115.36134726 57.80428532 -121.05655987 57.81634915 -126.75208473 57.84378242 C-128.84510938 57.85068237 -130.93816908 57.85074709 -133.03119278 57.84356689 C-135.88290784 57.83490959 -138.73345094 57.85076505 -141.58506775 57.87301636 C-142.8348149 57.86065521 -142.8348149 57.86065521 -144.10980946 57.84804434 C-149.07571679 57.91982845 -151.2490077 58.46201681 -154.30856323 62.38768005 Z M215.69143677 159.38768005 C214.59637185 162.67287481 214.59183068 165.1243142 214.62893677 168.57518005 C214.63796021 169.66185974 214.64698364 170.74853943 214.65628052 171.8681488 C214.66788208 172.69959412 214.67948364 173.53103943 214.69143677 174.38768005 C214.03659302 174.46244568 213.38174927 174.5372113 212.70706177 174.61424255 C202.34843705 176.10658679 191.70367911 180.2993903 184.69143677 188.38768005 C178.95385184 196.41497405 175.90613014 203.59614523 177.09378052 213.5478363 C179.0553257 222.86838104 184.39502637 229.60707735 192.01174927 235.04393005 C199.20180324 239.6419583 206.11420304 242.38768005 214.69143677 242.38768005 C214.69143677 257.89768005 214.69143677 273.40768005 214.69143677 289.38768005 C197.83255599 284.20033212 197.83255599 284.20033212 191.37893677 276.70018005 C189.0438788 272.11654774 187.86379631 267.37908963 186.69143677 262.38768005 C184.38143677 262.05768005 182.07143677 261.72768005 179.69143677 261.38768005 C177.73677648 263.18596752 176.75201987 264.6249543 176.53909302 267.3056488 C177.14744748 276.11898916 181.19988404 283.87944149 187.70315552 289.7978363 C196.01650659 296.44525062 204.493475 299.07614205 214.69143677 301.38768005 C214.72881958 302.44728943 214.76620239 303.5068988 214.80471802 304.59861755 C214.87036935 305.9866743 214.93681698 307.37469354 215.00393677 308.76268005 C215.03777466 309.81068787 215.03777466 309.81068787 215.07229614 310.87986755 C215.16127973 313.16056947 215.16127973 313.16056947 215.69143677 316.38768005 C218.51541743 318.68312846 218.51541743 318.68312846 221.75393677 318.32518005 C224.83713422 317.7144449 224.83713422 317.7144449 225.86721802 315.22361755 C226.79422247 312.03401929 226.8893016 309.39052999 226.81643677 306.07518005 C226.79838989 305.00654724 226.78034302 303.93791443 226.76174927 302.8368988 C226.73854614 302.02865662 226.71534302 301.22041443 226.69143677 300.38768005 C227.97018677 300.30518005 229.24893677 300.22268005 230.56643677 300.13768005 C242.42189611 298.76259543 252.08745375 292.35726825 259.47659302 283.1259613 C263.89425127 276.80487473 265.48737358 269.42603735 264.28909302 261.84080505 C261.30454078 250.46771844 254.73163976 243.28113254 244.69143677 237.38768005 C238.63818427 234.57637084 233.35004695 233.33891008 226.69143677 232.38768005 C226.69143677 216.87768005 226.69143677 201.36768005 226.69143677 185.38768005 C245.72571096 191.73243812 245.72571096 191.73243812 250.12893677 198.70018005 C251.49458464 201.44984775 252.11160337 204.13131697 252.69143677 207.13768005 C253.26922825 210.07688022 253.54967188 211.2165845 255.50393677 213.57518005 C257.73468122 214.63435176 257.73468122 214.63435176 260.31643677 213.76268005 C262.95778148 212.46716237 262.95778148 212.46716237 264.69143677 209.38768005 C264.57081599 200.32604398 260.75421133 192.57535004 254.53128052 186.16111755 C246.75144851 179.40594635 237.0199911 175.10827687 226.69143677 174.38768005 C226.72624146 173.57943787 226.76104614 172.77119568 226.79690552 171.9384613 C226.83751099 170.33551208 226.83751099 170.33551208 226.87893677 168.70018005 C226.91374146 167.64443787 226.94854614 166.58869568 226.98440552 165.5009613 C226.65477581 161.99809633 225.7731246 160.19189546 223.69143677 157.38768005 C220.1252503 155.54706769 218.44164669 156.73230496 215.69143677 159.38768005 Z " fill="#22B7C5" transform="translate(167.30856323242188,12.612319946289063)"/>
<path d="M0 0 C0.78716105 -0.00297112 1.5743221 -0.00594224 2.38533652 -0.0090034 C5.03152938 -0.01769748 7.67767703 -0.01919924 10.32388306 -0.02069092 C12.21766761 -0.02531854 14.11145123 -0.03034313 16.00523376 -0.03573608 C21.15605366 -0.04886635 26.30686051 -0.05530612 31.45769453 -0.05974674 C34.67410553 -0.0626761 37.89051295 -0.06678062 41.10692215 -0.07125092 C51.16574187 -0.08492671 61.22455344 -0.0945933 71.28338182 -0.09845281 C82.90361716 -0.10293567 94.523735 -0.12049384 106.14393461 -0.1494534 C115.12064684 -0.17105024 124.09732596 -0.181156 133.0740639 -0.18249393 C138.43811788 -0.18354327 143.80206142 -0.18947873 149.1660881 -0.20731354 C154.21069058 -0.22375996 159.25509917 -0.22596642 164.29971886 -0.21717453 C166.15206737 -0.21640235 168.00442616 -0.22077064 169.85674858 -0.23063278 C172.38397954 -0.24330011 174.91051838 -0.23750415 177.43774414 -0.22705078 C178.53925782 -0.23913539 178.53925782 -0.23913539 179.66302431 -0.25146413 C184.04275043 -0.20904542 186.90316475 0.36974803 190.34585571 3.14044189 C191.51233317 6.63987427 191.48720934 9.40918401 191.50698853 13.10284424 C191.51195343 13.80726151 191.51691833 14.51167877 191.52203369 15.23744202 C191.53663512 17.56709776 191.54345374 19.89668542 191.54898071 22.22637939 C191.5547336 23.8467916 191.56049132 25.46720379 191.56625366 27.08761597 C191.57675774 30.48543617 191.58260436 33.88323274 191.58609009 37.28106689 C191.59157516 41.63123737 191.61560578 45.9810949 191.64406204 50.33116722 C191.66270099 53.67864897 191.66789467 57.02605549 191.66942596 60.37358475 C191.67244993 61.97713559 191.68046986 63.58068518 191.69361115 65.18418503 C191.71069921 67.42944804 191.70878512 69.67394852 191.70230103 71.91925049 C191.70776947 73.83427872 191.70776947 73.83427872 191.71334839 75.78799438 C191.31659795 79.40734553 190.58947794 81.29596837 188.34585571 84.14044189 C184.73829445 85.34296231 181.44675508 85.28528777 177.69171143 85.28088379 C176.90455037 85.28385491 176.11738932 85.28682603 175.30637491 85.28988719 C172.66018205 85.29858127 170.01403439 85.30008303 167.36782837 85.30157471 C165.47404381 85.30620233 163.58026019 85.31122692 161.68647766 85.31661987 C156.53565777 85.32975013 151.38485091 85.33618991 146.2340169 85.34063053 C143.0176059 85.34355989 139.80119848 85.34766441 136.58478928 85.3521347 C126.52596955 85.3658105 116.46715799 85.37547709 106.40832961 85.3793366 C94.78809426 85.38381946 83.16797642 85.40137763 71.54777682 85.43033719 C62.57106459 85.45193403 53.59438547 85.46203979 44.61764753 85.46337771 C39.25359355 85.46442706 33.88965001 85.47036252 28.52562332 85.48819733 C23.48102085 85.50464375 18.43661225 85.50685021 13.39199257 85.49805832 C11.53964406 85.49728614 9.68728526 85.50165443 7.83496284 85.51151657 C5.30773189 85.5241839 2.78119304 85.51838794 0.25396729 85.50793457 C-0.8475464 85.52001918 -0.8475464 85.52001918 -1.97131288 85.53234792 C-6.36366519 85.48980692 -9.16117018 84.84605009 -12.65414429 82.14044189 C-14.14819887 79.15233273 -13.79798137 76.42525509 -13.8152771 73.09210205 C-13.820242 72.36671738 -13.82520691 71.6413327 -13.83032227 70.89396667 C-13.84495287 68.48913634 -13.85174734 66.08437196 -13.85726929 63.67950439 C-13.86301999 62.01042682 -13.86877773 60.34134926 -13.87454224 58.67227173 C-13.88505477 55.17012219 -13.89089578 51.66799562 -13.89437866 48.16583252 C-13.89986406 43.67765561 -13.92389185 39.18978198 -13.95235062 34.70170021 C-13.97097188 31.25303255 -13.97618232 27.80443802 -13.97771454 24.35572433 C-13.98074275 22.70110796 -13.98877696 21.04649292 -14.00189972 19.39192581 C-14.01894997 17.07690594 -14.01708282 14.76262794 -14.0105896 12.4475708 C-14.01423523 11.13011871 -14.01788086 9.81266663 -14.02163696 8.45529175 C-13.63365138 4.9555922 -13.16331581 3.56008226 -10.65414429 1.14044189 C-7.04658303 -0.06207853 -3.75504366 -0.00440398 0 0 Z " fill="#109CCB" transform="translate(37.654144287109375,81.85955810546875)"/>
<path d="M0 0 C1.05126572 -0.00960754 2.10253143 -0.01921509 3.18565369 -0.02911377 C4.89501854 -0.03548859 4.89501854 -0.03548859 6.63891602 -0.04199219 C8.38858421 -0.0505423 8.38858421 -0.0505423 10.17359924 -0.05926514 C12.64420664 -0.06872367 15.11482671 -0.07525249 17.58544922 -0.07910156 C21.37367613 -0.08881808 25.16136317 -0.11983869 28.94946289 -0.15136719 C31.34594403 -0.15789588 33.74242907 -0.16314688 36.13891602 -0.16699219 C37.84524452 -0.18551239 37.84524452 -0.18551239 39.58604431 -0.20440674 C40.64046219 -0.20140564 41.69488007 -0.19840454 42.78125 -0.1953125 C43.71009506 -0.19895813 44.63894012 -0.20260376 45.59593201 -0.20635986 C47.95532227 0.16113281 47.95532227 0.16113281 49.75344849 1.40692139 C51.26611391 3.61475304 51.34099477 4.91888607 51.359375 7.58496094 C51.37205917 8.47598511 51.38474335 9.36700928 51.39781189 10.28503418 C51.39487625 11.24445923 51.39194061 12.20388428 51.38891602 13.19238281 C51.39415787 14.17984497 51.39939972 15.16730713 51.40480042 16.18469238 C51.41122463 18.27269551 51.40987848 20.36073481 51.40136719 22.44873047 C51.3928543 25.64909043 51.42161836 28.84766791 51.45336914 32.04785156 C51.4549811 34.07519478 51.45440372 36.10254116 51.45141602 38.12988281 C51.46826698 39.56902039 51.46826698 39.56902039 51.48545837 41.03723145 C51.47138695 42.3737677 51.47138695 42.3737677 51.45703125 43.73730469 C51.45686508 44.5210144 51.45669891 45.30472412 51.45652771 46.11218262 C50.95532227 48.16113281 50.95532227 48.16113281 49.23999023 49.91137695 C46.57634784 51.36843887 44.92325335 51.55218728 41.89892578 51.58105469 C40.89430801 51.59696655 39.88969025 51.61287842 38.85462952 51.62927246 C37.77539719 51.62947388 36.69616486 51.62967529 35.58422852 51.62988281 C33.91250832 51.6413031 33.91250832 51.6413031 32.20701599 51.6529541 C29.85092407 51.66375586 27.49478426 51.66660792 25.13867188 51.66210938 C21.53442515 51.66113729 17.93230836 51.70275656 14.32836914 51.74707031 C12.03866004 51.75227745 9.74894354 51.7549655 7.45922852 51.75488281 C6.38202042 51.77127808 5.30481232 51.78767334 4.19496155 51.80456543 C-0.42488824 51.76190724 -3.23783847 51.65648337 -7.22875977 49.20629883 C-9.74226755 44.99132402 -9.71302528 41.66854582 -9.60327148 36.84472656 C-9.60094009 35.95125015 -9.5986087 35.05777374 -9.59620667 34.13722229 C-9.58648691 32.25357478 -9.56474056 30.36995573 -9.53173828 28.48657227 C-9.48228469 25.60486545 -9.47025318 22.72486656 -9.46459961 19.84277344 C-9.45051431 18.010073 -9.43431015 16.17738736 -9.41577148 14.34472656 C-9.41040878 13.48423203 -9.40504608 12.62373749 -9.39952087 11.73716736 C-9.37553978 10.53055199 -9.37553978 10.53055199 -9.35107422 9.29956055 C-9.34043442 8.59516342 -9.32979462 7.8907663 -9.3188324 7.1650238 C-8.99553234 4.80191214 -8.2882322 3.18960243 -7.04467773 1.16113281 C-4.53791039 -0.09225086 -2.80531959 0.02063977 0 0 Z " fill="#0790CE" transform="translate(33.044677734375,185.8388671875)"/>
<path d="M0 0 C1.05126572 -0.00960754 2.10253143 -0.01921509 3.18565369 -0.02911377 C4.89501854 -0.03548859 4.89501854 -0.03548859 6.63891602 -0.04199219 C8.38858421 -0.0505423 8.38858421 -0.0505423 10.17359924 -0.05926514 C12.64420664 -0.06872367 15.11482671 -0.07525249 17.58544922 -0.07910156 C21.37367613 -0.08881808 25.16136317 -0.11983869 28.94946289 -0.15136719 C31.34594403 -0.15789588 33.74242907 -0.16314688 36.13891602 -0.16699219 C37.84524452 -0.18551239 37.84524452 -0.18551239 39.58604431 -0.20440674 C40.64046219 -0.20140564 41.69488007 -0.19840454 42.78125 -0.1953125 C43.71009506 -0.19895813 44.63894012 -0.20260376 45.59593201 -0.20635986 C47.95532227 0.16113281 47.95532227 0.16113281 49.75245667 1.40692139 C51.26447021 3.6119819 51.34663025 4.92140453 51.37524414 7.58496094 C51.39115601 8.47598511 51.40706787 9.36700928 51.42346191 10.28503418 C51.42366333 11.24445923 51.42386475 12.20388428 51.42407227 13.19238281 C51.43549255 14.67357605 51.43549255 14.67357605 51.44714355 16.18469238 C51.45795017 18.27267934 51.46079539 20.36072038 51.45629883 22.44873047 C51.45532585 25.64934992 51.4969551 28.84757804 51.54125977 32.04785156 C51.54646608 34.0751903 51.54915497 36.10253739 51.54907227 38.12988281 C51.57366516 39.56902039 51.57366516 39.56902039 51.59875488 41.03723145 C51.53119858 47.50596698 51.53119858 47.50596698 49.10766602 50.26318359 C44.37020909 51.61265436 39.8281005 51.58847449 34.92407227 51.55957031 C33.85539917 51.56244049 32.78672607 51.56531067 31.68566895 51.56826782 C29.4296821 51.57030629 27.17367749 51.56479168 24.91772461 51.55224609 C21.46761495 51.53619002 18.0186768 51.55210286 14.56860352 51.57128906 C12.37459052 51.56930659 10.18057825 51.56546284 7.98657227 51.55957031 C6.44108704 51.56867935 6.44108704 51.56867935 4.86437988 51.57797241 C-4.29652702 51.48815397 -4.29652702 51.48815397 -8.04467773 48.16113281 C-9.36600867 44.19714 -9.20721577 40.39185963 -9.21264648 36.25878906 C-9.21597488 35.3846788 -9.21930328 34.51056854 -9.22273254 33.60997009 C-9.22779422 31.76155117 -9.2301411 29.91312311 -9.22998047 28.06469727 C-9.23216665 25.23796531 -9.25032944 22.41162383 -9.26928711 19.58496094 C-9.27222125 17.78873831 -9.27420591 15.99251384 -9.27514648 14.19628906 C-9.282332 13.3513942 -9.28951752 12.50649933 -9.29692078 11.63600159 C-9.29384415 10.84515671 -9.29076752 10.05431183 -9.28759766 9.23950195 C-9.28902267 8.54683731 -9.29044769 7.85417267 -9.29191589 7.14051819 C-8.99655027 4.77582495 -8.28806802 3.18628981 -7.04467773 1.16113281 C-4.53791039 -0.09225086 -2.80531959 0.02063977 0 0 Z " fill="#0F9BCC" transform="translate(105.044677734375,313.8388671875)"/>
<path d="M0 0 C1.05126572 -0.00960754 2.10253143 -0.01921509 3.18565369 -0.02911377 C4.89501854 -0.03548859 4.89501854 -0.03548859 6.63891602 -0.04199219 C8.38858421 -0.0505423 8.38858421 -0.0505423 10.17359924 -0.05926514 C12.64420664 -0.06872367 15.11482671 -0.07525249 17.58544922 -0.07910156 C21.37367613 -0.08881808 25.16136317 -0.11983869 28.94946289 -0.15136719 C31.34594403 -0.15789588 33.74242907 -0.16314688 36.13891602 -0.16699219 C37.84524452 -0.18551239 37.84524452 -0.18551239 39.58604431 -0.20440674 C40.64046219 -0.20140564 41.69488007 -0.19840454 42.78125 -0.1953125 C43.71009506 -0.19895813 44.63894012 -0.20260376 45.59593201 -0.20635986 C47.95532227 0.16113281 47.95532227 0.16113281 49.75543213 1.41265869 C51.25598314 3.59925439 51.32980659 4.8526616 51.32763672 7.49316406 C51.3369799 8.79966919 51.3369799 8.79966919 51.34651184 10.13256836 C51.33730209 11.07011963 51.32809235 12.0076709 51.31860352 12.97363281 C51.31935127 14.42153198 51.31935127 14.42153198 51.32011414 15.89868164 C51.3177735 17.93963682 51.30804558 19.98059488 51.29150391 22.02148438 C51.26791359 25.14902505 51.27094283 28.27571331 51.27758789 31.40332031 C51.27201109 33.38509624 51.2649012 35.36686857 51.25610352 37.34863281 C51.25747063 38.75495972 51.25747063 38.75495972 51.25886536 40.18969727 C51.24933334 41.06070068 51.23980133 41.9317041 51.22998047 42.82910156 C51.22537308 43.59504639 51.22076569 44.36099121 51.21601868 45.15014648 C50.95532227 47.16113281 50.95532227 47.16113281 48.95532227 50.16113281 C46.05494877 51.12792398 44.12589137 51.3091574 41.10424805 51.35400391 C40.1195755 51.37006683 39.13490295 51.38612976 38.12039185 51.40267944 C33.627388 51.4471815 29.13453002 51.48817578 24.64135742 51.51123047 C22.27081497 51.52780769 19.90032286 51.55512056 17.5300293 51.59326172 C14.11163413 51.64797507 10.69440856 51.66989477 7.27563477 51.68457031 C6.21716339 51.70723969 5.15869202 51.72990906 4.06814575 51.75326538 C-0.5168064 51.74007912 -3.25571105 51.64616974 -7.21728516 49.21069336 C-9.74447364 44.99331041 -9.71320973 41.67665256 -9.60327148 36.84472656 C-9.60094009 35.95125015 -9.5986087 35.05777374 -9.59620667 34.13722229 C-9.58648691 32.25357478 -9.56474056 30.36995573 -9.53173828 28.48657227 C-9.48228469 25.60486545 -9.47025318 22.72486656 -9.46459961 19.84277344 C-9.45051431 18.010073 -9.43431015 16.17738736 -9.41577148 14.34472656 C-9.41040878 13.48423203 -9.40504608 12.62373749 -9.39952087 11.73716736 C-9.37553978 10.53055199 -9.37553978 10.53055199 -9.35107422 9.29956055 C-9.34043442 8.59516342 -9.32979462 7.8907663 -9.3188324 7.1650238 C-8.99553234 4.80191214 -8.2882322 3.18960243 -7.04467773 1.16113281 C-4.53791039 -0.09225086 -2.80531959 0.02063977 0 0 Z " fill="#0790CF" transform="translate(33.044677734375,249.8388671875)"/>
<path d="M0 0 C1.57667198 -0.01407143 1.57667198 -0.01407143 3.18519592 -0.02842712 C4.87907692 -0.01157616 4.87907692 -0.01157616 6.60717773 0.00561523 C7.7707933 0.00416 8.93440887 0.00270477 10.13328552 0.00120544 C12.59197495 0.00286488 15.05067471 0.01443092 17.50927734 0.03515625 C21.27998785 0.06412614 25.04929433 0.05576206 28.82006836 0.04272461 C31.20744501 0.04896137 33.5948172 0.05735181 35.98217773 0.06811523 C37.67909508 0.06371178 37.67909508 0.06371178 39.41029358 0.05921936 C40.45825607 0.07190353 41.50621857 0.08458771 42.5859375 0.09765625 C43.50875015 0.10305923 44.43156281 0.10846222 45.38233948 0.11402893 C47.72827148 0.50170898 47.72827148 0.50170898 49.52639771 1.75621033 C51.03069601 3.94092449 51.10275616 5.19280568 51.10058594 7.83374023 C51.10992912 9.14024536 51.10992912 9.14024536 51.11946106 10.47314453 C51.11025131 11.4106958 51.10104156 12.34824707 51.09155273 13.31420898 C51.09230049 14.76210815 51.09230049 14.76210815 51.09306335 16.23925781 C51.09072271 18.280213 51.0809948 20.32117106 51.06445312 22.36206055 C51.04086281 25.48960122 51.04389205 28.61628948 51.05053711 31.74389648 C51.04496031 33.72567241 51.03785042 35.70744474 51.02905273 37.68920898 C51.03041985 39.09553589 51.03041985 39.09553589 51.03181458 40.53027344 C51.02228256 41.40127686 51.01275055 42.27228027 51.00292969 43.16967773 C50.9983223 43.93562256 50.9937149 44.70156738 50.9889679 45.49072266 C50.72827148 47.50170898 50.72827148 47.50170898 48.72827148 50.50170898 C45.8229537 51.5794447 43.02489859 51.63748547 39.94726562 51.6628418 C39.00271011 51.67244934 38.0581546 51.68205688 37.0849762 51.69195557 C36.0713652 51.69620544 35.05775421 51.70045532 34.01342773 51.70483398 C32.44158974 51.71338409 32.44158974 51.71338409 30.83799744 51.72210693 C28.62312833 51.73154616 26.40824524 51.73808663 24.19335938 51.74194336 C20.80696176 51.75166252 17.4211677 51.78270206 14.03491211 51.81420898 C11.88192092 51.82073802 9.72892539 51.82598888 7.57592773 51.82983398 C6.56434097 51.84218079 5.55275421 51.85452759 4.51051331 51.86724854 C-4.35176917 51.83918441 -4.35176917 51.83918441 -8.27172852 48.50170898 C-9.39831131 46.2485434 -9.41498605 44.98368832 -9.44873047 42.48266602 C-9.4615657 41.65485626 -9.47440094 40.82704651 -9.48762512 39.97415161 C-9.49501205 39.07832367 -9.50239899 38.18249573 -9.51000977 37.25952148 C-9.51808151 36.33960419 -9.52615326 35.41968689 -9.5344696 34.47189331 C-9.54831209 32.52335497 -9.55903351 30.57479236 -9.56689453 28.6262207 C-9.58412022 25.64544837 -9.62800589 22.66578143 -9.67211914 19.68530273 C-9.68224487 17.79338382 -9.69076135 15.90145546 -9.69750977 14.00952148 C-9.71501785 13.117742 -9.73252594 12.22596252 -9.75056458 11.30715942 C-9.74763901 10.47304535 -9.74471344 9.63893127 -9.74169922 8.77954102 C-9.74756546 8.04833038 -9.7534317 7.31711975 -9.75947571 6.56375122 C-8.52824454 1.3584918 -4.92157499 0.00088545 0 0 Z " fill="#0790CF" transform="translate(33.271728515625,313.498291015625)"/>
<path d="M0 0 C1.05126572 -0.00960754 2.10253143 -0.01921509 3.18565369 -0.02911377 C4.89501854 -0.03548859 4.89501854 -0.03548859 6.63891602 -0.04199219 C8.38858421 -0.0505423 8.38858421 -0.0505423 10.17359924 -0.05926514 C12.64420664 -0.06872367 15.11482671 -0.07525249 17.58544922 -0.07910156 C21.37367613 -0.08881808 25.16136317 -0.11983869 28.94946289 -0.15136719 C31.34594403 -0.15789588 33.74242907 -0.16314688 36.13891602 -0.16699219 C37.84524452 -0.18551239 37.84524452 -0.18551239 39.58604431 -0.20440674 C40.64046219 -0.20140564 41.69488007 -0.19840454 42.78125 -0.1953125 C43.71009506 -0.19895813 44.63894012 -0.20260376 45.59593201 -0.20635986 C47.95532227 0.16113281 47.95532227 0.16113281 49.75344849 1.40692139 C51.26611391 3.61475304 51.34099477 4.91888607 51.359375 7.58496094 C51.37205917 8.47598511 51.38474335 9.36700928 51.39781189 10.28503418 C51.39487625 11.24445923 51.39194061 12.20388428 51.38891602 13.19238281 C51.39415787 14.17984497 51.39939972 15.16730713 51.40480042 16.18469238 C51.41122463 18.27269551 51.40987848 20.36073481 51.40136719 22.44873047 C51.3928543 25.64909043 51.42161836 28.84766791 51.45336914 32.04785156 C51.4549811 34.07519478 51.45440372 36.10254116 51.45141602 38.12988281 C51.46826698 39.56902039 51.46826698 39.56902039 51.48545837 41.03723145 C51.47138695 42.3737677 51.47138695 42.3737677 51.45703125 43.73730469 C51.45686508 44.5210144 51.45669891 45.30472412 51.45652771 46.11218262 C50.95532227 48.16113281 50.95532227 48.16113281 49.24098206 49.9133606 C46.56551623 51.37393314 44.91939307 51.54112821 41.88305664 51.54931641 C40.87521118 51.55877289 39.86736572 51.56822937 38.82897949 51.57797241 C37.74661011 51.57189972 36.66424072 51.56582703 35.54907227 51.55957031 C33.87379456 51.56387558 33.87379456 51.56387558 32.16467285 51.56826782 C29.80435682 51.57030848 27.44402388 51.56477857 25.08374023 51.55224609 C21.46893533 51.53619327 17.8552486 51.55209559 14.24047852 51.57128906 C11.9475073 51.56930663 9.65453677 51.56546296 7.36157227 51.55957031 C5.73801819 51.56867935 5.73801819 51.56867935 4.08166504 51.57797241 C3.07381958 51.56851593 2.06597412 51.55905945 1.02758789 51.54931641 C0.14252563 51.54692963 -0.74253662 51.54454285 -1.65441895 51.54208374 C-4.56420502 51.07833241 -5.92374694 50.18212815 -8.04467773 48.16113281 C-9.34146324 44.27077628 -9.20715584 40.56796753 -9.21264648 36.51269531 C-9.21597488 35.66315277 -9.21930328 34.81361023 -9.22273254 33.93832397 C-9.22779431 32.14117982 -9.2301411 30.34402627 -9.22998047 28.546875 C-9.23216387 25.80355244 -9.25031887 23.06063406 -9.26928711 20.31738281 C-9.27222184 18.56998835 -9.2742061 16.82259198 -9.27514648 15.07519531 C-9.282332 14.25733551 -9.28951752 13.43947571 -9.29692078 12.59683228 C-9.28007329 8.37624636 -9.14329744 4.95055076 -7.04467773 1.16113281 C-4.53791039 -0.09225086 -2.80531959 0.02063977 0 0 Z " fill="#109CCB" transform="translate(105.044677734375,185.8388671875)"/>
<path d="M0 0 C1.05119019 -0.00945648 2.10238037 -0.01891296 3.1854248 -0.02865601 C4.31984009 -0.02258331 5.45425537 -0.01651062 6.62304688 -0.01025391 C8.37059265 -0.01455917 8.37059265 -0.01455917 10.15344238 -0.01895142 C12.61808762 -0.02099408 15.082749 -0.0154502 17.54736328 -0.00292969 C21.32686502 0.01312018 25.10529727 -0.00277254 28.88476562 -0.02197266 C31.27669508 -0.01999026 33.66862386 -0.01614667 36.06054688 -0.01025391 C37.19496216 -0.0163266 38.32937744 -0.02239929 39.49816895 -0.02865601 C41.07495422 -0.01447128 41.07495422 -0.01447128 42.68359375 0 C43.60942261 0.00238678 44.53525146 0.00477356 45.48913574 0.00723267 C48.30304667 0.46287074 49.15593739 1.12710899 50.84179688 3.38818359 C52.13747965 7.27523192 52.02396524 10.98369713 52.04492188 15.03662109 C52.05062195 15.88616364 52.05632202 16.73570618 52.06219482 17.61099243 C52.07163792 19.40812944 52.07817607 21.20528372 52.08203125 23.00244141 C52.09173579 25.74591396 52.12276473 28.48863686 52.15429688 31.23193359 C52.16082738 32.97932499 52.16607767 34.72672173 52.16992188 36.47412109 C52.18226868 37.2919809 52.19461548 38.1098407 52.20733643 38.95248413 C52.18940501 43.55766879 51.91215646 46.69457879 48.84179688 50.38818359 C45.95388779 51.35081995 44.08651163 51.52514959 41.08251953 51.54931641 C40.11786774 51.55892395 39.15321594 51.56853149 38.15933228 51.57843018 C36.59836319 51.58480499 36.59836319 51.58480499 35.00585938 51.59130859 C33.93435638 51.59700867 32.86285339 51.60270874 31.75888062 51.60858154 C29.4909565 51.61803097 27.22301865 51.6245653 24.95507812 51.62841797 C21.4873865 51.63812595 18.02028694 51.66915143 14.55273438 51.70068359 C12.3496129 51.7072135 10.14648718 51.71246402 7.94335938 51.71630859 C6.90676178 51.7286554 5.87016418 51.7410022 4.80215454 51.75372314 C0.87486843 51.74158442 -2.52658218 51.56697189 -6.31494141 50.49462891 C-9.43108172 46.93356154 -8.82993188 42.92012749 -8.75195312 38.35693359 C-8.75199341 37.36947144 -8.75203369 36.38200928 -8.7520752 35.36462402 C-8.7467129 33.2765466 -8.72910003 31.18847018 -8.70019531 29.10058594 C-8.6583609 25.90025309 -8.65912317 22.70202478 -8.66601562 19.50146484 C-8.6555228 17.47410643 -8.6425842 15.4467589 -8.62695312 13.41943359 C-8.62675171 12.46000854 -8.62655029 11.5005835 -8.62634277 10.51208496 C-8.61043091 9.62106079 -8.59451904 8.73003662 -8.578125 7.81201172 C-8.56970581 7.028302 -8.56128662 6.24459229 -8.5526123 5.43713379 C-7.60634808 0.52130434 -4.52728619 0.01167131 0 0 Z " fill="#17A7C8" transform="translate(177.158203125,313.61181640625)"/>
<path d="M0 0 C1.05119019 -0.00945648 2.10238037 -0.01891296 3.1854248 -0.02865601 C4.31984009 -0.02258331 5.45425537 -0.01651062 6.62304688 -0.01025391 C8.37059265 -0.01455917 8.37059265 -0.01455917 10.15344238 -0.01895142 C12.61808762 -0.02099408 15.082749 -0.0154502 17.54736328 -0.00292969 C21.32686502 0.01312018 25.10529727 -0.00277254 28.88476562 -0.02197266 C31.27669508 -0.01999026 33.66862386 -0.01614667 36.06054688 -0.01025391 C37.19496216 -0.0163266 38.32937744 -0.02239929 39.49816895 -0.02865601 C41.07495422 -0.01447128 41.07495422 -0.01447128 42.68359375 0 C43.60942261 0.00238678 44.53525146 0.00477356 45.48913574 0.00723267 C48.30304667 0.46287074 49.15593739 1.12710899 50.84179688 3.38818359 C52.13747965 7.27523192 52.02396524 10.98369713 52.04492188 15.03662109 C52.05062195 15.88616364 52.05632202 16.73570618 52.06219482 17.61099243 C52.07163792 19.40812944 52.07817607 21.20528372 52.08203125 23.00244141 C52.09173579 25.74591396 52.12276473 28.48863686 52.15429688 31.23193359 C52.16082738 32.97932499 52.16607767 34.72672173 52.16992188 36.47412109 C52.18226868 37.2919809 52.19461548 38.1098407 52.20733643 38.95248413 C52.18929322 43.58637825 51.85326942 46.62430115 48.84179688 50.38818359 C46.3833748 51.61739463 44.74573931 51.52821334 41.99658203 51.54931641 C40.98858551 51.55892395 39.98058899 51.56853149 38.94204712 51.57843018 C37.30300919 51.58480499 37.30300919 51.58480499 35.63085938 51.59130859 C33.95133682 51.5998587 33.95133682 51.5998587 32.23788452 51.60858154 C29.86563057 51.61804024 27.49336343 51.62456896 25.12109375 51.62841797 C21.48869957 51.63812506 17.85687069 51.66914157 14.22460938 51.70068359 C11.92252941 51.70721329 9.62044539 51.71246389 7.31835938 51.71630859 C6.22971588 51.7286554 5.14107239 51.7410022 4.0194397 51.75372314 C3.00513885 51.75072205 1.99083801 51.74772095 0.94580078 51.74462891 C0.05470612 51.74827454 -0.83638855 51.75192017 -1.75448608 51.75567627 C-4.71902755 51.30244186 -6.06736372 50.53012905 -8.15820312 48.38818359 C-8.65940857 46.3392334 -8.65940857 46.3392334 -8.65991211 43.96435547 C-8.66929306 43.0733313 -8.67867401 42.18230713 -8.68833923 41.26428223 C-8.67148827 39.82514465 -8.67148827 39.82514465 -8.65429688 38.35693359 C-8.65647972 36.87574036 -8.65647972 36.87574036 -8.65870667 35.36462402 C-8.65704644 33.27658132 -8.64547147 31.18852654 -8.62475586 29.10058594 C-8.59581317 25.90035138 -8.60414209 22.70177379 -8.6171875 19.50146484 C-8.61094989 17.47411302 -8.60255878 15.44676645 -8.59179688 13.41943359 C-8.59473251 12.46000854 -8.59766815 11.5005835 -8.60069275 10.51208496 C-8.58800858 9.62106079 -8.5753244 8.73003662 -8.56225586 7.81201172 C-8.55685287 7.028302 -8.55144989 6.24459229 -8.54588318 5.43713379 C-7.61514159 0.51801776 -4.52189875 0.01165742 0 0 Z " fill="#17A8C8" transform="translate(177.158203125,185.61181640625)"/>
<path d="M0 0 C1.05119019 -0.00945648 2.10238037 -0.01891296 3.1854248 -0.02865601 C4.31984009 -0.02258331 5.45425537 -0.01651062 6.62304688 -0.01025391 C8.37059265 -0.01455917 8.37059265 -0.01455917 10.15344238 -0.01895142 C12.61808762 -0.02099408 15.082749 -0.0154502 17.54736328 -0.00292969 C21.32686502 0.01312018 25.10529727 -0.00277254 28.88476562 -0.02197266 C31.27669508 -0.01999026 33.66862386 -0.01614667 36.06054688 -0.01025391 C37.19496216 -0.0163266 38.32937744 -0.02239929 39.49816895 -0.02865601 C41.07495422 -0.01447128 41.07495422 -0.01447128 42.68359375 0 C43.60942261 0.00238678 44.53525146 0.00477356 45.48913574 0.00723267 C48.30304667 0.46287074 49.15593739 1.12710899 50.84179688 3.38818359 C52.13747965 7.27523192 52.02396524 10.98369713 52.04492188 15.03662109 C52.05062195 15.88616364 52.05632202 16.73570618 52.06219482 17.61099243 C52.07163792 19.40812944 52.07817607 21.20528372 52.08203125 23.00244141 C52.09173579 25.74591396 52.12276473 28.48863686 52.15429688 31.23193359 C52.16082738 32.97932499 52.16607767 34.72672173 52.16992188 36.47412109 C52.18226868 37.2919809 52.19461548 38.1098407 52.20733643 38.95248413 C52.18940501 43.55766879 51.91215646 46.69457879 48.84179688 50.38818359 C45.95388779 51.35081995 44.08651163 51.52514959 41.08251953 51.54931641 C40.11786774 51.55892395 39.15321594 51.56853149 38.15933228 51.57843018 C36.59836319 51.58480499 36.59836319 51.58480499 35.00585938 51.59130859 C33.93435638 51.59700867 32.86285339 51.60270874 31.75888062 51.60858154 C29.4909565 51.61803097 27.22301865 51.6245653 24.95507812 51.62841797 C21.4873865 51.63812595 18.02028694 51.66915143 14.55273438 51.70068359 C12.3496129 51.7072135 10.14648718 51.71246402 7.94335938 51.71630859 C6.90676178 51.7286554 5.87016418 51.7410022 4.80215454 51.75372314 C0.87486843 51.74158442 -2.52658218 51.56697189 -6.31494141 50.49462891 C-9.43108172 46.93356154 -8.82993188 42.92012749 -8.75195312 38.35693359 C-8.75199341 37.36947144 -8.75203369 36.38200928 -8.7520752 35.36462402 C-8.7467129 33.2765466 -8.72910003 31.18847018 -8.70019531 29.10058594 C-8.6583609 25.90025309 -8.65912317 22.70202478 -8.66601562 19.50146484 C-8.6555228 17.47410643 -8.6425842 15.4467589 -8.62695312 13.41943359 C-8.62675171 12.46000854 -8.62655029 11.5005835 -8.62634277 10.51208496 C-8.61043091 9.62106079 -8.59451904 8.73003662 -8.578125 7.81201172 C-8.56970581 7.028302 -8.56128662 6.24459229 -8.5526123 5.43713379 C-7.60634808 0.52130434 -4.52728619 0.01167131 0 0 Z " fill="#17A8C8" transform="translate(177.158203125,249.61181640625)"/>
<path d="M0 0 C1.05126572 -0.00960754 2.10253143 -0.01921509 3.18565369 -0.02911377 C4.89501854 -0.03548859 4.89501854 -0.03548859 6.63891602 -0.04199219 C8.38858421 -0.0505423 8.38858421 -0.0505423 10.17359924 -0.05926514 C12.64420664 -0.06872367 15.11482671 -0.07525249 17.58544922 -0.07910156 C21.37367613 -0.08881808 25.16136317 -0.11983869 28.94946289 -0.15136719 C31.34594403 -0.15789588 33.74242907 -0.16314688 36.13891602 -0.16699219 C37.84524452 -0.18551239 37.84524452 -0.18551239 39.58604431 -0.20440674 C40.64046219 -0.20140564 41.69488007 -0.19840454 42.78125 -0.1953125 C43.71009506 -0.19895813 44.63894012 -0.20260376 45.59593201 -0.20635986 C47.95532227 0.16113281 47.95532227 0.16113281 49.75245667 1.40692139 C51.26447021 3.6119819 51.34663025 4.92140453 51.37524414 7.58496094 C51.39115601 8.47598511 51.40706787 9.36700928 51.42346191 10.28503418 C51.42366333 11.24445923 51.42386475 12.20388428 51.42407227 13.19238281 C51.43549255 14.67357605 51.43549255 14.67357605 51.44714355 16.18469238 C51.45795017 18.27267934 51.46079539 20.36072038 51.45629883 22.44873047 C51.45532585 25.64934992 51.4969551 28.84757804 51.54125977 32.04785156 C51.54646608 34.0751903 51.54915497 36.10253739 51.54907227 38.12988281 C51.57366516 39.56902039 51.57366516 39.56902039 51.59875488 41.03723145 C51.53119858 47.50596698 51.53119858 47.50596698 49.10766602 50.26318359 C44.37020909 51.61265436 39.8281005 51.58847449 34.92407227 51.55957031 C33.85539917 51.56244049 32.78672607 51.56531067 31.68566895 51.56826782 C29.4296821 51.57030629 27.17367749 51.56479168 24.91772461 51.55224609 C21.46761495 51.53619002 18.0186768 51.55210286 14.56860352 51.57128906 C12.37459052 51.56930659 10.18057825 51.56546284 7.98657227 51.55957031 C6.44108704 51.56867935 6.44108704 51.56867935 4.86437988 51.57797241 C-4.29652702 51.48815397 -4.29652702 51.48815397 -8.04467773 48.16113281 C-9.34146324 44.27077628 -9.20715584 40.56796753 -9.21264648 36.51269531 C-9.21597488 35.66315277 -9.21930328 34.81361023 -9.22273254 33.93832397 C-9.22779431 32.14117982 -9.2301411 30.34402627 -9.22998047 28.546875 C-9.23216387 25.80355244 -9.25031887 23.06063406 -9.26928711 20.31738281 C-9.27222184 18.56998835 -9.2742061 16.82259198 -9.27514648 15.07519531 C-9.282332 14.25733551 -9.28951752 13.43947571 -9.29692078 12.59683228 C-9.28007329 8.37624636 -9.14329744 4.95055076 -7.04467773 1.16113281 C-4.53791039 -0.09225086 -2.80531959 0.02063977 0 0 Z " fill="#0F9CCB" transform="translate(105.044677734375,249.8388671875)"/>
<path d="M0 0 C0 15.18 0 30.36 0 46 C-10.25426134 44.71821733 -17.15755188 42.18408536 -23.65625 33.96875 C-26.94986516 29.14322081 -27.43596119 24.95740911 -26.58984375 19.30078125 C-24.78655932 12.26677774 -20.55059017 7.98931056 -14.484375 4.25390625 C-10.06721296 2.02448956 -5.01015125 0 0 0 Z " fill="#2BC4C1" transform="translate(382,198)"/>
<path d="M0 0 C10.11417811 2.02283562 17.35659813 3.84048122 23.5625 12.3125 C26.62438094 17.49682113 27.58130246 22.11483926 26.69140625 28.0625 C24.89754199 34.39669655 20.26678127 38.3431872 15 42 C9.79322675 44.74609078 5.93499862 46 0 46 C0 30.82 0 15.64 0 0 Z " fill="#2FC9C0" transform="translate(394,256)"/>
</svg>
